<svg width="32" height="32" viewBox="0 0 32 32" fill="none" xmlns="http://www.w3.org/2000/svg">
<rect width="32" height="32" rx="4" fill="#091628"/>
<g clip-path="url(#clip0_70_28)">
<path d="M8.98141 11.6366H5.97465L3.81055 8.38086H6.81731L8.98141 11.6366Z" fill="#91C36C"/>
<path d="M14.1533 11.6366H11.1465L8.98242 8.38086H11.9892L14.1533 11.6366Z" fill="#91C36C"/>
<path d="M17.6123 15.5052H20.6957C22.879 15.5052 23.3131 14.2795 23.3131 13.5645C23.3131 12.8495 22.879 11.6557 20.6957 11.6557H16.2909L14.1523 8.38086H21.6788C26.0198 8.38086 27.3285 11.6302 27.3285 13.5709C27.3285 15.0456 26.4283 17.2288 23.8365 18.2374L27.5519 23.619H22.9109L17.6188 15.5115L17.6123 15.5052Z" fill="white"/>
</g>
<defs>
<clipPath id="clip0_70_28">
<rect width="24.381" height="15.2381" fill="white" transform="translate(3.81055 8.38086)"/>
</clipPath>
</defs>
</svg>
