<svg width="242" height="161" viewBox="0 0 242 161" fill="none" xmlns="http://www.w3.org/2000/svg">
<path fill-rule="evenodd" clip-rule="evenodd" d="M79 39H163V123H79V39ZM124.662 72.7347V73.0539H129.585V72.7179C127.888 72.4659 127.804 72.2979 127.804 70.4163V57.5811L127.552 57.4971L125.318 58.5051V58.7235C126.444 59.5513 126.443 59.8407 126.443 60.7656V60.8067V70.4331C126.426 72.2139 126.342 72.4827 124.662 72.7347ZM111.038 65.7124C111.038 63.9484 110.366 63.5116 109.307 63.5116C107.999 63.5116 107.72 64.3229 107.472 65.0427C107.275 65.6166 107.098 66.1324 106.435 66.1324C105.998 66.1324 105.695 65.8972 105.695 65.4436C105.695 64.5028 107.997 62.89 109.946 62.89C111.659 62.89 112.483 64.0996 112.483 66.3004V71.878C112.483 72.3643 112.954 72.322 113.278 72.2928L113.278 72.2928C113.346 72.2867 113.408 72.2812 113.457 72.2812C113.843 72.2812 114.095 72.13 114.347 71.8948L114.599 72.1804C114.247 72.7348 113.373 73.1548 112.617 73.1548C111.827 73.1548 111.088 72.6004 111.038 71.6428C109.845 72.7348 108.669 73.1548 107.695 73.1548C106.25 73.1548 105.746 72.2812 105.746 71.1724C105.746 69.4084 106.687 68.9044 109.677 68.1316L111.055 67.7788V65.7124H111.038ZM111.038 68.182L110.013 68.434C108.098 68.9212 107.107 69.4924 107.107 70.5676C107.107 71.5084 107.644 72.2812 108.787 72.2812C109.593 72.2812 110.349 71.7772 111.038 71.2396V68.182ZM103.293 69.1056C103.293 66.4176 101.193 65.3424 99.1097 64.872H99.1265V64.8216C100.941 64.368 102.285 63.612 102.285 61.3776C102.285 57.7824 98.2697 57.4296 95.7161 57.5136L92.0873 57.6984V58.0344C94.3598 58.3443 94.364 58.9005 94.377 60.6252C94.3787 60.864 94.3807 61.1252 94.3889 61.4112V69.324C94.3808 69.605 94.379 69.8623 94.3774 70.0979C94.3656 71.8204 94.3617 72.3925 91.9529 72.7176V73.0536L97.2113 73.104L97.308 73.1056C98.5945 73.1283 103.293 73.2113 103.293 69.1056ZM95.7496 69.2279L95.7497 69.1224H95.7329V65.3424L96.6233 65.292C100.034 65.124 101.714 67.8792 101.714 69.2736C101.714 71.2728 99.9329 72.5832 97.9505 72.5832C95.7393 72.5832 95.744 71.055 95.7492 69.3687L95.7496 69.2279ZM100.874 61.6128C100.874 64.2672 97.8665 64.8216 95.7497 64.8552V58.0344C98.0681 58.0344 100.874 58.8744 100.874 61.6128ZM115.876 64.7714L115.862 64.7365C115.454 63.7412 115.359 63.5092 114.23 63.3266V62.9738H118.463V63.3266C116.77 63.4088 117.168 64.424 117.611 65.5537L117.64 65.6282L119.874 71.4242L121.286 67.325C122.31 64.3682 122.495 63.5618 120.798 63.3266V62.9738H124.797V63.3266C123.789 63.4442 123.47 63.8474 123.05 64.721L122.092 66.9386L119.152 74.1626C118.312 76.2794 117.724 76.985 116.8 76.985C116.178 76.985 115.674 76.481 115.674 75.8426C115.674 75.3554 115.943 74.9186 116.414 74.7674C116.453 74.7914 116.507 74.8272 116.572 74.8699L116.573 74.8702L116.573 74.8702C116.872 75.0663 117.389 75.4058 117.623 75.4058C118.04 75.4058 118.389 74.5655 118.591 74.0759L118.591 74.0758L118.592 74.0747L118.592 74.0738L118.593 74.0726L118.593 74.0725L118.593 74.0715L118.633 73.9757L118.653 73.9295C118.669 73.8901 118.685 73.8554 118.698 73.8266L118.883 73.289L115.876 64.7714ZM130.694 68.0647C130.694 71.3071 132.592 73.2895 135.717 73.2895C138.741 73.2895 140.975 71.0887 140.958 67.9807C140.958 64.7719 138.825 62.7559 135.734 62.7559C132.676 62.7559 130.694 64.9231 130.694 68.0647ZM132.239 67.9135C132.239 65.8135 133.23 63.2599 135.7 63.2599C138.186 63.2599 139.211 66.1159 139.211 68.1991C139.211 70.1647 138.186 72.7855 135.885 72.7855C133.432 72.7855 132.239 70.0303 132.239 67.9135ZM145.646 70.4158C145.647 70.5547 145.647 70.6868 145.646 70.8122C145.642 71.9458 145.64 72.5359 147.258 72.7175V73.0535H142.554V72.7175C144.117 72.4655 144.201 72.1966 144.218 70.4158V66.0647V66.0236C144.218 65.0982 144.218 64.793 143.092 63.9982V63.7631L145.461 62.7551L145.713 62.8391L145.612 65.5271H145.662C146.166 64.3175 147.443 62.7383 148.888 62.7383C149.526 62.7383 150.047 63.1414 150.047 63.7966C150.047 64.4015 149.392 64.9894 148.854 65.2246C148.804 65.1874 148.751 65.1464 148.694 65.1034L148.688 65.0982L148.687 65.0975C148.313 64.8115 147.828 64.4396 147.393 64.4687C145.557 64.6442 145.602 67.4583 145.611 68.0271L145.611 68.0292C145.612 68.0581 145.612 68.0811 145.612 68.0975V70.4158H145.646ZM100.958 81.9246H101.159H101.176V79.791C100.303 79.287 99.2945 79.0854 98.3034 79.0854C94.8258 79.0854 93.0113 81.4374 93.0113 83.7726C93.0113 86.7294 95.4473 88.3086 98.1857 88.3086C99.1097 88.3086 100.017 88.1406 100.857 87.7374C101.176 86.9814 101.428 86.2086 101.579 85.4022L101.395 85.3182C100.807 86.7294 100.118 87.9894 98.4042 87.9894C96.5057 87.9894 94.5233 86.1918 94.5233 83.6046C94.5233 81.3534 95.8673 79.3878 98.2697 79.3878C99.8489 79.3878 100.706 80.4462 100.958 81.9246ZM105.796 88.2744C103.998 88.2744 102.57 87.132 102.57 85.2672C102.57 83.4528 104.049 82.2096 105.813 82.2096C107.594 82.2096 109.022 83.3688 109.022 85.2168C109.022 86.9976 107.526 88.2744 105.796 88.2744ZM105.779 82.512C104.368 82.512 103.797 83.9736 103.797 85.1832C103.797 86.4096 104.469 87.9888 105.897 87.9888C107.224 87.9888 107.812 86.4768 107.812 85.3512C107.812 84.1416 107.207 82.512 105.779 82.512ZM109.459 87.9384V88.14H112.516V87.9384C111.542 87.7872 111.491 87.6864 111.491 86.6112V79.0008L111.357 78.9504L109.845 79.5216V79.656C110.484 80.1148 110.484 80.2859 110.483 80.8083L110.483 80.8488V86.6112C110.467 87.636 110.433 87.7872 109.459 87.9384ZM113.003 88.14V87.9384C113.978 87.7872 114.011 87.636 114.028 86.6112V80.8488L114.028 80.8083C114.028 80.2859 114.029 80.1148 113.39 79.656V79.5216L114.902 78.9504L115.053 79.0008V86.6112C115.053 87.6864 115.103 87.7872 116.078 87.9384V88.14H113.003ZM119.757 87.4344C118.278 87.4344 117.354 86.1576 117.455 84.7968L117.472 84.1584H121.286C121.235 82.9824 120.446 82.2264 119.27 82.2264C117.506 82.2264 116.33 83.6712 116.33 85.368C116.33 86.9472 117.455 88.2744 119.085 88.2744C120.11 88.2744 121 87.6192 121.504 86.7624L121.302 86.6112C120.916 87.132 120.429 87.4344 119.757 87.4344ZM118.9 82.512C119.589 82.512 119.958 83.184 120.076 83.7888L117.556 83.9064C117.707 83.2512 118.161 82.512 118.9 82.512ZM126.41 87.1488C127.821 87.0984 128.594 87.6864 128.594 88.56C128.594 89.8368 126.846 91.3152 124.511 91.3152C122.949 91.3152 122.31 90.5256 122.31 89.9712C122.31 89.0341 123.211 88.5775 123.949 88.204L123.951 88.2026C123.993 88.1815 124.034 88.1607 124.074 88.14C123.57 88.0728 122.73 87.7368 122.73 87.1488C122.73 86.759 123.374 86.2593 123.69 86.014L123.722 85.9896C123.1 85.6368 122.646 85.0488 122.646 84.3096C122.646 82.9656 123.873 82.2096 125.116 82.2096C125.754 82.2096 126.258 82.3608 126.83 82.6296H128.711V83.184L127.115 83.1504C127.3 83.4865 127.384 83.772 127.384 84.1752C127.384 85.5192 126.174 86.2752 124.948 86.2752C124.612 86.2752 124.276 86.2248 123.974 86.1072C123.537 86.5104 123.554 87.2832 124.763 87.216L126.41 87.1488ZM124.494 88.14C124.024 88.3416 123.268 88.8792 123.268 89.4504C123.268 90.4081 124.662 90.6768 125.402 90.6768C126.342 90.6768 127.821 90.2736 127.821 89.0976C127.821 87.9828 126.419 88.0341 125.911 88.0527L125.91 88.0527C125.86 88.0545 125.818 88.056 125.788 88.056L124.494 88.14ZM126.258 84.36C126.258 83.5032 125.872 82.512 124.898 82.512C124.041 82.512 123.772 83.3856 123.772 84.0912C123.772 85.3848 124.562 85.9728 125.15 85.9728C126.023 85.9728 126.258 85.0824 126.258 84.36ZM132.878 87.4344C131.399 87.4344 130.475 86.1576 130.576 84.7968L130.626 84.1584H134.423C134.373 82.9824 133.583 82.2264 132.407 82.2264C130.626 82.2264 129.45 83.6712 129.45 85.368C129.45 86.9472 130.576 88.2744 132.206 88.2744C133.23 88.2744 134.121 87.6192 134.625 86.7624L134.423 86.6112C134.037 87.132 133.566 87.4344 132.878 87.4344ZM132.004 82.512C132.693 82.512 133.062 83.184 133.18 83.7888L130.66 83.9064C130.811 83.2512 131.265 82.512 132.004 82.512ZM140.69 88.2744C138.892 88.2744 137.464 87.132 137.464 85.2672C137.464 83.4528 138.943 82.2096 140.707 82.2096C142.487 82.2096 143.915 83.3688 143.915 85.2168C143.915 86.9976 142.42 88.2744 140.69 88.2744ZM140.673 82.512C139.262 82.512 138.691 83.9736 138.691 85.1832C138.691 86.4096 139.363 87.9888 140.791 87.9888C142.118 87.9888 142.706 86.4768 142.706 85.3512C142.689 84.1416 142.101 82.512 140.673 82.512ZM145.411 82.2942L144.352 82.899V83.0334H145.394V86.6286C145.377 87.6534 145.343 87.8046 144.352 87.9558V88.1574H147.662V87.9558C146.452 87.8046 146.402 87.7038 146.402 86.6286V83.0334H148.115V82.479H146.402V81.6894C146.402 80.9502 146.486 79.1358 147.544 79.1358C148.132 79.1358 148.67 79.7238 148.989 80.1774C149.342 80.1942 149.711 80.043 149.711 79.623C149.711 78.951 148.703 78.7326 148.199 78.7326C147.242 78.7326 146.435 79.3542 145.931 80.1438C145.511 80.8158 145.427 81.5214 145.411 82.2942ZM106.938 100.37C106.821 101.95 107.896 103.411 109.61 103.411C110.399 103.411 110.937 103.059 111.39 102.47L111.626 102.638C111.054 103.613 110.013 104.402 108.837 104.402C106.955 104.402 105.662 102.857 105.662 101.026C105.662 99.0769 107.022 97.3969 109.072 97.3969C110.433 97.3969 111.34 98.2537 111.407 99.6313H106.989L106.938 100.37ZM109.946 99.1945C109.811 98.4889 109.391 97.7161 108.585 97.7161C107.728 97.7161 107.207 98.5561 107.039 99.3121L109.946 99.1945ZM122.479 95.9858C122.899 95.9858 123.251 95.633 123.251 95.213C123.251 94.793 122.899 94.4402 122.479 94.4402C122.059 94.4402 121.706 94.793 121.706 95.213C121.706 95.633 122.059 95.9858 122.479 95.9858ZM134.322 95.213C134.322 95.633 133.97 95.9858 133.55 95.9858C133.13 95.9858 132.777 95.633 132.777 95.213C132.777 94.793 133.13 94.4402 133.55 94.4402C133.97 94.4402 134.322 94.793 134.322 95.213ZM117.875 103.058V104.503L120.378 103.949L120.311 103.697C119.034 103.881 119.034 103.697 119.034 102.302V93.9359L118.866 93.8687L117.119 94.5407V94.6919C117.367 94.8678 117.531 94.952 117.641 95.008L117.641 95.008C117.73 95.0536 117.783 95.0806 117.814 95.1233C117.859 95.1847 117.859 95.2787 117.858 95.5079L117.858 95.5487V97.5311C117.455 97.4303 117.035 97.3799 116.598 97.3799C114.381 97.3799 112.516 98.9255 112.516 101.227C112.516 102.773 113.742 104.385 115.372 104.385C116.397 104.385 117.186 103.73 117.875 103.058ZM115.826 97.8503C116.548 97.8503 117.875 98.2199 117.875 99.9839H117.858V102.588C117.539 103.092 116.834 103.629 116.229 103.629C115.12 103.629 113.81 102.689 113.81 100.505C113.81 99.2951 114.414 97.8503 115.826 97.8503ZM120.815 104.218V104.016C121.941 103.848 121.991 103.663 121.991 102.487V99.5809L121.991 99.5479C121.992 98.9354 121.992 98.7316 121.067 98.2033V98.0521L122.999 97.3801L123.167 97.4473V102.471C123.167 103.714 123.235 103.831 124.343 103.999V104.218H120.815ZM128.224 104.386C129.266 104.386 130.207 103.899 130.895 103.126L130.744 102.907C130.24 103.277 129.803 103.495 129.182 103.495C127.67 103.495 126.343 102.269 126.343 100.303C126.343 99.2785 126.914 97.8673 128.123 97.8673C128.534 97.8673 128.879 98.1541 129.196 98.4165C129.463 98.6378 129.709 98.8417 129.955 98.8417C130.291 98.8417 130.66 98.4721 130.66 98.1361C130.66 97.4473 129.501 97.3801 129.014 97.3801C126.964 97.3801 125.116 98.9425 125.116 101.059C125.116 102.84 126.376 104.386 128.224 104.386ZM131.685 104.218V104.016C132.811 103.848 132.861 103.663 132.861 102.487V99.5809V99.5479C132.861 98.9354 132.861 98.7316 131.937 98.2033V98.0521L133.852 97.3801L134.02 97.4473V102.471C134.02 103.714 134.07 103.831 135.196 103.999V104.218H131.685ZM136.876 99.5402L136.876 99.5809H136.893V102.471C136.876 103.647 136.843 103.831 135.717 103.999V104.218H139.245V103.999C138.119 103.831 138.069 103.714 138.069 102.471V98.8249C138.573 98.3713 138.993 98.1697 139.615 98.1697C141.415 98.1697 141.414 99.5893 141.412 100.641L141.412 100.723V102.471C141.395 103.647 141.345 103.831 140.219 103.999V104.218H143.747V103.999C142.639 103.831 142.571 103.714 142.571 102.471V99.7657C142.571 98.8921 142.487 97.3801 140.656 97.3801C139.682 97.3801 138.842 97.9177 137.985 98.5561L138.103 97.4473L137.935 97.3801L136.137 98.0521V98.2033C136.877 98.7293 136.877 98.9337 136.876 99.5402ZM145.377 100.37C145.259 101.95 146.335 103.411 148.048 103.411C148.838 103.411 149.375 103.059 149.829 102.47L150.047 102.638C149.476 103.613 148.451 104.402 147.258 104.402C145.377 104.402 144.083 102.857 144.083 101.026C144.083 99.0769 145.444 97.3969 147.494 97.3969C148.855 97.3969 149.762 98.2537 149.829 99.6313H145.444L145.377 100.37ZM148.401 99.1945C148.267 98.4889 147.83 97.7161 147.04 97.7161C146.183 97.7161 145.663 98.5561 145.495 99.3121L148.401 99.1945ZM102.537 102.958C102.554 103.63 102.285 103.832 101.109 103.899V104.218H105.208V103.899C104.2 103.832 103.831 103.697 103.814 103.042C103.785 101.387 103.736 99.5337 103.698 98.1169C103.668 97.0178 103.646 96.1811 103.646 95.9022C103.646 94.6422 103.931 94.3398 105.208 94.2558V93.9366H102.705L98.7905 102.085C98.6324 101.635 98.4655 101.281 98.2961 100.923C98.2315 100.786 98.1666 100.649 98.1017 100.505L95.2121 93.9366H92.5241V94.2558C93.7673 94.323 93.9857 94.4406 93.9857 96.1038C93.9857 96.9606 93.9185 100.119 93.7505 102.202C93.6665 103.529 93.3137 103.748 92.3897 103.916V104.235H95.7665V103.916C94.5737 103.916 94.2881 103.378 94.2881 102.068C94.2881 101.387 94.313 100.49 94.3416 99.4617C94.375 98.2564 94.4135 96.8721 94.4225 95.4486H94.4561C95.4137 97.683 96.4889 100.069 97.0265 101.144C97.3636 101.818 97.6655 102.577 97.914 103.201C98.0494 103.541 98.169 103.842 98.2697 104.067H98.5049C99.309 102.044 100.329 99.8993 101.341 97.7728C101.682 97.0558 102.022 96.3408 102.352 95.6334H102.369C102.429 97.0663 102.454 98.5416 102.478 100.019C102.494 101.002 102.51 101.985 102.537 102.958Z" fill="#E1E7ED"/>
</svg>
