<svg width="242" height="161" viewBox="0 0 242 161" fill="none" xmlns="http://www.w3.org/2000/svg">
<path d="M104.868 84.836L111.104 86.0256V91.593H104.868V84.836ZM115.38 68.4671H111.104V66.9444C111.104 64.6603 111.457 62.6618 113.85 62.6618C114.36 62.6618 114.87 62.757 115.38 62.8997V56.3807C115.38 56.3807 115.262 56.3331 114.556 56.1903C113.811 56.0476 113.066 56 112.242 56C105.731 56 104.868 61.4246 104.868 66.7064V75.2716L115.38 73.2255V68.4671ZM146.838 56.5234H140.64V68.3243L146.838 67.0871V56.5234ZM118.282 103.584H124.48V90.4034C125.853 91.5454 127.539 92.164 129.461 92.164C131.226 92.164 132.835 91.593 134.207 90.5461L118.282 87.4056V103.584ZM129.304 67.9436C127.382 67.9436 125.813 68.6098 124.48 69.847V68.4671H118.282V72.6545L134.247 69.5139C132.835 68.5146 131.148 67.9436 129.304 67.9436ZM95.65 82.9802C94.9832 84.2174 93.8849 85.0739 92.316 85.0739C89.6487 85.0739 88.2366 82.5044 88.2366 80.03C88.2366 77.5081 89.6487 74.9861 92.316 74.9861C93.8849 74.9861 94.9832 75.8426 95.65 77.0798L102.004 75.8426C100.631 71.0842 96.9836 67.9436 92.2767 67.9436C86.3147 67.9436 82 73.0351 82 80.03C82 87.0249 86.3147 92.1164 92.2767 92.1164C96.9444 92.1164 100.631 88.9758 102.004 84.2174L95.65 82.9802Z" fill="#E1E7ED"/>
<path d="M111.104 75.041V86.033L104.867 84.8434V75.2789L115.379 73.2328V75.041H111.104ZM140.561 91.6003V68.2841L146.837 67.0469V69.664C148.21 68.522 149.818 67.9034 151.74 67.9034C156.996 67.9034 160.997 73.0901 160.997 79.9898C160.997 87.1274 157.114 92.0762 151.583 92.0762C149.661 92.0762 147.778 91.41 146.484 90.1728V91.5527H140.561V91.6003ZM146.641 80.0374C146.641 82.5593 148.053 85.0813 150.72 85.0813C153.387 85.0813 154.8 82.5593 154.8 80.0374C154.8 77.5154 153.387 74.9934 150.72 74.9934C148.053 74.9934 146.641 77.5154 146.641 80.0374ZM134.128 90.5535L118.203 87.4129V72.6618L134.168 69.5213C136.953 71.5198 138.639 75.3265 138.639 80.0374C138.639 84.653 136.874 88.5073 134.128 90.5535ZM132.403 80.0374C132.403 77.5154 130.99 74.9934 128.323 74.9934C125.656 74.9934 124.244 77.5154 124.244 80.0374C124.244 82.5593 125.656 85.0813 128.323 85.0813C131.03 85.1289 132.403 82.5593 132.403 80.0374Z" fill="#F2F2F2"/>
</svg>
