<svg width="242" height="161" viewBox="0 0 242 161" fill="none" xmlns="http://www.w3.org/2000/svg">
<path d="M91.1229 53.3272C90.4871 53.6053 89.2032 53.9478 87.299 53.9478C82.026 53.9478 79 50.6972 79 46.5499C79 41.6126 82.8558 39 87.6492 39C89.5075 39 90.4894 39.3188 91.1218 39.62L90.5361 42.5726C89.832 42.2931 89.0846 42.0386 87.794 42.0386C85.5113 42.0386 83.0898 43.2554 83.0898 46.4954C83.0898 49.3938 85.0206 50.9268 87.8131 50.9268C88.9192 50.9268 89.6699 50.7323 90.5363 50.3759L91.1229 53.3272Z" fill="#F2F2F2"/>
<path d="M99.8785 42.6616C98.458 42.6616 97.0834 43.2388 96.3835 44.1659H96.3405V39.0518L92.7673 40.1605V53.5032H96.3405V47.2706C96.3405 46.3707 96.9932 45.4026 98.2452 45.4026C99.5845 45.4026 100.1 46.3476 100.1 47.7222V53.5034H103.677V47.2801C103.677 44.1031 102.156 42.6616 99.8785 42.6616Z" fill="#F2F2F2"/>
<path d="M109.067 49.2935C109.198 50.6449 110.449 51.3631 112.381 51.3785C113.546 51.3866 114.9 51.0831 115.802 50.6068L116.341 53.0994C114.984 53.7105 113.433 53.9473 111.854 53.9473C107.601 53.9473 105.321 51.6546 105.321 48.142C105.321 44.7442 107.772 42.5518 111.446 42.5518C115.231 42.5518 116.928 45.0501 116.928 48.1803C116.928 48.5102 116.883 49.0475 116.842 49.2935H109.067ZM113.36 47.0143C113.36 46.2295 112.932 44.857 111.278 44.857C109.828 44.857 109.144 45.9761 109.042 47.0143H113.36Z" fill="#F2F2F2"/>
<path d="M121.129 53.5031L117.18 42.998H121.123L123.267 50.429H123.34L125.485 42.998H129.429L125.481 53.5031H121.129Z" fill="#F2F2F2"/>
<path d="M130.442 46.4534C130.442 44.9079 130.388 43.8997 130.314 42.9984H133.68L133.782 44.9511H133.873C134.462 43.4056 135.593 42.8184 136.755 42.7593C137.308 42.7304 137.607 42.7655 137.95 42.8249V45.8965C137.622 45.839 136.972 45.7713 136.515 45.809C135.14 45.9224 134.308 46.8188 134.074 47.8509C134.028 48.0648 134.003 48.3022 134.003 48.5801V53.5035H130.443V46.4534H130.442Z" fill="#F2F2F2"/>
<path d="M150.507 48.2496C150.507 51.6927 148.192 53.9473 144.442 53.9473C140.691 53.9473 138.375 51.6927 138.375 48.2496C138.375 44.8062 140.691 42.5518 144.442 42.5518C148.192 42.5518 150.507 44.8064 150.507 48.2496ZM146.802 48.2496C146.802 46.5401 146.146 45.0521 144.442 45.0521C142.735 45.0521 142.082 46.5399 142.082 48.2496C142.082 49.9608 142.735 51.4464 144.442 51.4464C146.147 51.4464 146.802 49.9608 146.802 48.2496Z" fill="#F2F2F2"/>
<path d="M152.095 46.3469C152.095 45.0359 152.042 43.9165 151.966 42.9977H155.332L155.41 44.4674H155.482C155.948 43.7839 157.182 42.6611 159.106 42.6611C161.462 42.6611 163 44.1027 163 47.1951V53.503H159.43V47.6778C159.43 46.3261 158.912 45.402 157.62 45.402C156.63 45.402 156.015 46.0263 155.786 46.6248C155.702 46.844 155.667 47.1417 155.667 47.4425V53.5028H152.095V46.3469Z" fill="#F2F2F2"/>
<path d="M79.1274 81.3516V56.2969L121.068 68.8249L79.1274 81.3516Z" fill="#E1E7ED"/>
<path d="M79.1379 81.3534L121.068 93.88L162.996 81.3534V56.2998L121.068 68.8248L79.1379 81.3534Z" fill="#E1E7ED"/>
<path d="M79.1301 110.475L79.1265 85.4121L121.065 97.9395L79.1301 110.475Z" fill="#E1E7ED"/>
<path d="M162.998 85.4121L121.056 97.9355L79.1345 110.47L121.064 123L162.998 110.466V85.4121Z" fill="#E1E7ED"/>
</svg>
