<svg width="242" height="161" viewBox="0 0 242 161" fill="none" xmlns="http://www.w3.org/2000/svg">
<g clip-path="url(#clip0_8449_6573)">
<path fill-rule="evenodd" clip-rule="evenodd" d="M80 102H163V59H80V102ZM88.9907 84.4169C90.1499 87.7546 92.7469 90.3981 96.6769 91.5311C101.057 92.8106 104.862 91.725 107.974 88.2741C108.084 88.1191 108.187 87.961 108.291 87.7997C108.456 87.5778 108.617 87.3376 108.789 87.0818L108.789 87.0818L108.789 87.0818C108.908 86.9049 109.032 86.7205 109.165 86.5296C109.165 88.2744 109.165 89.8642 109.127 91.4926H109.165V91.5311H111.202V80.7133H111.163V80.6748H100.635V82.7686H100.673V82.807H104.554H108.387C108.373 82.8563 108.359 82.8921 108.348 82.9218C108.331 82.9666 108.32 82.9975 108.32 83.04C107.205 87.4602 103.44 90.0968 98.8286 89.6315C96.5854 89.4116 94.6928 88.4453 93.2792 87.0419C90.4856 84.2355 89.5909 79.7121 91.6046 75.9053C94.2176 70.9811 100.443 69.4301 105.169 72.4932C105.857 72.9473 106.491 73.4932 107.157 74.0679C107.458 74.3275 107.766 74.593 108.089 74.8584H109.972V69.3526H109.934V69.3141H107.859V72.067L107.855 72.0643C107.801 72.0149 107.758 71.9829 107.724 71.958L107.724 71.958L107.724 71.958C107.706 71.9447 107.691 71.9335 107.679 71.9228C107.658 71.903 107.641 71.886 107.628 71.8732C104.669 69.0427 101.173 68.1121 97.2532 69.0427C92.7958 70.0508 88.1078 73.8119 88.2615 80.4422C88.3034 81.8381 88.5483 83.1764 88.9907 84.4169ZM144.018 91.9964L143.98 91.9963H143.979L143.978 91.9963C137.977 91.9771 133.12 87.5727 132.392 81.8266C132.33 81.3356 132.298 80.8346 132.298 80.3255C132.298 80.1926 132.3 80.0604 132.304 79.9287C132.45 75.46 135.044 71.6965 138.824 69.873C140.385 69.1167 142.146 68.6934 144.018 68.6934L144.054 68.6934H144.056C150.435 68.6934 155.661 73.8891 155.661 80.248C155.661 86.7619 150.473 91.9964 144.018 91.9964ZM113.584 71.4028L113.584 71.4076C113.609 71.4055 113.634 71.4035 113.658 71.4015L116.351 71.3545V73.7833C116.35 79.7291 116.346 85.5775 116.313 91.4148H116.351V91.4923H118.618V87.1497V82.7683H119.233C119.822 82.7553 120.407 82.7553 120.991 82.7553C122.158 82.7553 123.319 82.7553 124.497 82.6519C127.302 82.4193 129.108 80.752 129.992 78.1542C130.716 75.9932 130.46 73.9885 129.244 72.2682C128.969 71.8636 128.642 71.4728 128.263 71.0974C126.803 69.7015 124.958 69.275 123.037 69.2363C121.566 69.2071 120.091 69.2223 118.607 69.2376C117.073 69.2533 115.528 69.2692 113.969 69.2363L113.55 69.2274L113.546 71.4035L113.584 71.4028Z" fill="#E1E7ED"/>
<path d="M153.355 80.2868C153.393 85.3274 149.32 89.6313 144.248 89.7088C138.753 89.7864 134.526 85.5988 134.526 80.2481C134.526 75.0524 138.792 70.9424 144.171 70.9424C149.167 70.9424 153.355 75.2463 153.355 80.2868Z" fill="#E1E7ED"/>
<path d="M118.656 80.7523C118.656 77.5341 118.656 74.471 118.656 71.4078C118.733 71.3691 118.81 71.3691 118.849 71.3691C120.463 71.3691 122.115 71.3303 123.729 71.4078C125.727 71.5242 127.379 72.92 127.879 74.8199C128.378 76.6811 127.725 78.6585 126.15 79.783C125.688 80.1319 125.112 80.4421 124.574 80.4809C122.614 80.636 120.655 80.6748 118.656 80.7523Z" fill="#E1E7ED"/>
</g>
<defs>
<clipPath id="clip0_8449_6573">
<rect width="83" height="43" fill="white" transform="translate(80 59)"/>
</clipPath>
</defs>
</svg>
