<svg width="242" height="161" viewBox="0 0 242 161" fill="none" xmlns="http://www.w3.org/2000/svg">
<path d="M191.195 68.9991V68.9526C191.172 68.6044 191.172 68.1865 191.172 67.7222V67.6294L191.077 67.6526C190.959 67.6758 190.367 67.6758 189.799 67.6758H188.048C187.693 67.6758 187.361 67.6758 186.935 67.6526H186.912H186.888C186.817 67.699 186.793 67.7919 186.793 67.8383C186.793 67.9312 186.817 67.9776 186.864 68.024L187.054 68.0473C187.527 68.0937 187.551 68.1633 187.551 69.1616V72.5277C187.551 73.526 187.527 73.5724 187.054 73.6188L186.793 73.642L186.77 73.6652C186.722 73.7117 186.699 73.8045 186.722 73.8742C186.746 73.9438 186.77 73.9903 186.817 74.0135H186.841H186.864C187.314 73.9903 187.622 73.9903 188.048 73.9903C188.426 73.9903 188.758 73.9903 189.302 74.0135H189.326H189.349C189.42 73.9903 189.444 73.8974 189.444 73.8277C189.444 73.7581 189.42 73.6885 189.373 73.642L189.018 73.5956C188.521 73.5492 188.497 73.5027 188.497 72.5045V71.2045C188.497 71.0188 188.497 71.0187 188.734 71.0187H189.373C189.704 71.0187 189.965 71.0188 190.083 71.0652C190.225 71.1116 190.296 71.2045 190.343 71.367L190.438 71.7616L190.462 71.7848C190.556 71.8545 190.769 71.8545 190.817 71.7616L190.84 71.7384V71.7152C190.84 71.6223 190.84 71.483 190.817 71.3438C190.817 71.1813 190.793 70.9723 190.793 70.7866C190.793 70.6009 190.793 70.3919 190.817 70.2294C190.817 70.0902 190.84 69.9509 190.84 69.858V69.8348L190.817 69.8116C190.769 69.7419 190.675 69.7419 190.627 69.7419C190.556 69.7419 190.485 69.7652 190.438 69.8116L190.343 70.2062C190.296 70.4384 190.225 70.4616 190.154 70.4848C190.059 70.508 189.752 70.5312 189.373 70.5312H188.734C188.497 70.5312 188.497 70.5312 188.497 70.3455V68.3723C188.497 68.0705 188.497 68.0705 188.71 68.0705H189.302C189.704 68.0705 190.012 68.0705 190.201 68.1169C190.604 68.233 190.722 68.4883 190.817 68.9526V68.9758L190.84 68.9991C190.888 69.0223 190.935 69.0455 190.982 69.0455C191.077 69.0919 191.172 69.0687 191.195 68.9991ZM184.805 70.8098C184.805 69.2312 183.74 67.5365 181.421 67.5365C179.433 67.5365 177.942 68.9758 177.942 70.9027C177.942 72.5045 179.125 74.1528 181.421 74.1528C183.338 74.1528 184.805 72.7134 184.805 70.8098ZM183.693 71.1116C183.693 73.0384 182.533 73.7349 181.539 73.7349C179.575 73.7349 179.054 71.7848 179.054 70.6241C179.054 68.6741 180.238 67.9776 181.255 67.9776C183.054 67.9776 183.693 69.6491 183.693 71.1116ZM175.907 87.0602C175.907 91.0996 178.983 94.6747 184.048 94.6747C188.474 94.6747 192 91.3782 192 86.8513C192 82.9047 189.349 79.1439 184.048 79.1439C179.338 79.1207 175.907 82.5565 175.907 87.0602ZM178.202 86.3405C178.202 81.419 181.303 79.8404 183.669 79.8404C188.048 79.8404 189.704 83.8333 189.704 87.5477C189.704 91.9818 187.101 94.0014 184.356 94.0014C179.835 93.955 178.202 89.6603 178.202 86.3405ZM173.138 68.024C173.185 67.9776 173.209 67.908 173.209 67.8383C173.209 67.7687 173.161 67.699 173.114 67.6758L173.09 67.6526H173.067C172.38 67.699 171.978 67.699 171.268 67.6526H171.244H171.221C171.173 67.6758 171.126 67.7222 171.126 67.7919C171.102 67.8615 171.15 67.9544 171.197 68.0008L171.221 68.024L171.41 68.0473C171.599 68.0705 171.718 68.1169 171.741 68.1401C171.718 68.2794 171.386 68.883 171.173 69.2544L171.126 69.3241C170.889 69.7651 170.629 70.2294 170.298 70.7866C170.037 70.3455 169.801 69.858 169.564 69.3705C169.469 69.1848 169.375 68.9991 169.28 68.8133C169.209 68.674 168.996 68.2098 168.996 68.1169C168.996 68.0937 169.043 68.0705 169.327 68.024L169.469 68.0008L169.493 67.9776C169.54 67.9312 169.564 67.8383 169.54 67.7455C169.517 67.6758 169.493 67.6294 169.422 67.6062H169.398H169.375C169.138 67.6294 168.807 67.6294 168.357 67.6294C167.907 67.6294 167.576 67.6294 167.268 67.6062H167.245H167.221C167.174 67.6294 167.15 67.6758 167.126 67.7455C167.103 67.8151 167.126 67.908 167.174 67.9544L167.197 67.9776L167.481 68.024C167.742 68.0705 167.86 68.0937 168.191 68.6973L169.327 70.8562C169.588 71.367 169.635 71.4598 169.635 71.9938V72.4813C169.635 73.5027 169.611 73.5492 169.138 73.5956L168.807 73.6188L168.783 73.642C168.736 73.6885 168.712 73.7813 168.736 73.851C168.759 73.9206 168.783 73.967 168.83 73.9903H168.854H168.878C169.398 73.967 169.73 73.967 170.132 73.967C170.511 73.967 170.866 73.967 171.434 73.9903H171.457H171.481C171.528 73.967 171.552 73.9206 171.576 73.851C171.576 73.7813 171.576 73.7117 171.528 73.642L171.505 73.6188L171.126 73.5956C170.676 73.5724 170.629 73.5027 170.629 72.4813V71.9938C170.629 71.2973 170.653 71.2277 171.055 70.508L171.647 69.4866C171.694 69.3937 171.765 69.3009 171.812 69.2312C172.191 68.5812 172.451 68.1169 172.854 68.0473L173.138 68.024ZM169.801 79.469C169.422 79.3761 168.191 79.1439 166.89 79.1439C163.434 79.1439 161.162 80.1886 159.624 81.7672C158.204 83.253 157.565 85.1798 157.565 87.0834C157.565 89.0567 158.299 90.8442 159.671 92.1907C161.423 93.9318 163.931 94.6747 166.653 94.6747C167.884 94.6747 169.54 94.3961 170.747 94.0943C171.173 93.9782 171.599 93.8854 171.86 93.8854C171.954 93.8157 171.954 93.6764 171.883 93.6068C171.481 93.4443 171.339 92.9103 171.339 92.005V90.7514C171.339 89.6138 171.363 88.987 172.333 88.871L172.688 88.8245C172.854 88.6852 172.83 88.3602 172.664 88.2674C171.907 88.3138 171.126 88.337 170.227 88.337C168.878 88.337 167.623 88.3138 166.961 88.2674C166.795 88.337 166.771 88.7317 166.961 88.8245L167.978 88.9406C169.398 89.1031 169.469 89.2424 169.469 91.1228V92.0282C169.469 92.7478 169.351 93.1425 169.233 93.305C168.972 93.6764 168.144 93.9782 166.724 93.9782C162.133 93.9782 159.861 90.5889 159.861 86.2709C159.861 82.9048 161.801 79.794 166.251 79.794C168.594 79.794 170.298 80.56 170.937 82.9744C171.079 83.1137 171.481 83.0905 171.552 82.9047C171.339 81.5583 171.221 80.3975 171.221 79.6547C170.937 79.7011 170.227 79.5618 169.801 79.469ZM165.896 67.5365V67.5133L165.872 67.4901C165.825 67.4205 165.73 67.4204 165.706 67.4204C165.683 67.4204 165.659 67.4204 165.612 67.4437H165.588L165.564 67.4669C165.446 67.6758 165.399 67.699 164.878 67.699H160.926C160.5 67.699 160.31 67.6758 160.263 67.4669V67.4437L160.239 67.4204C160.216 67.3972 160.168 67.374 160.097 67.374C160.074 67.374 160.003 67.374 159.955 67.3972L159.932 67.4204V67.4437C159.861 67.8151 159.719 68.4187 159.577 68.8366V68.8598L159.6 68.883C159.648 68.9991 159.861 69.0455 159.955 68.9758H159.979V68.9526C160.074 68.7437 160.168 68.5348 160.381 68.3258C160.594 68.1401 161.068 68.1169 161.494 68.1169H162.014C162.227 68.1169 162.227 68.1169 162.227 68.349V72.5277C162.227 73.5492 162.156 73.5956 161.707 73.6188L161.352 73.642H161.328C161.281 73.6652 161.233 73.7349 161.233 73.8277C161.233 73.8974 161.257 73.967 161.328 73.9903H161.352H161.375C161.967 73.967 162.322 73.967 162.701 73.967C163.079 73.967 163.387 73.967 163.955 73.9903H163.979H164.002C164.073 73.9438 164.097 73.851 164.097 73.8045C164.097 73.7349 164.073 73.6652 164.026 73.6188L163.695 73.5724C163.221 73.526 163.198 73.4795 163.198 72.4813V68.2794C163.198 68.1865 163.198 68.0937 163.221 68.0705C163.245 68.0473 163.34 68.0473 163.411 68.0473H164.097C164.618 68.0473 164.949 68.1169 165.162 68.2794C165.257 68.349 165.328 68.5812 165.375 68.9062V68.9294L165.399 68.9526C165.422 68.9991 165.493 69.0223 165.564 69.0223C165.659 69.0223 165.73 68.9758 165.754 68.9294V68.9062V68.883C165.73 68.6741 165.801 67.908 165.896 67.5365ZM157.21 72.5045V69.1848C157.21 68.1633 157.234 68.0937 157.731 68.0705L157.991 68.0473H158.015C158.062 68.024 158.086 67.9544 158.086 67.8615C158.086 67.8383 158.062 67.7222 157.991 67.6758H157.967H157.944C157.494 67.699 157.163 67.699 156.76 67.699C156.358 67.699 156.027 67.699 155.553 67.6758H155.53H155.506C155.435 67.7222 155.411 67.8151 155.411 67.8615C155.411 67.9312 155.435 68.0008 155.482 68.0473H155.506L155.766 68.0705C156.263 68.1169 156.287 68.1633 156.287 69.1848V72.5045C156.287 73.5027 156.263 73.5724 155.766 73.6188L155.506 73.642L155.482 73.6652C155.435 73.7117 155.411 73.8045 155.435 73.8742C155.435 73.9438 155.482 73.9903 155.53 74.0135H155.553H155.577C156.05 73.9903 156.382 73.9903 156.784 73.9903C157.163 73.9903 157.47 73.9903 157.967 74.0135H157.991H158.015C158.086 73.967 158.109 73.8742 158.109 73.8277C158.109 73.7349 158.086 73.6885 158.038 73.642L157.778 73.5956C157.234 73.5724 157.21 73.526 157.21 72.5045ZM155.624 93.7461C154.63 93.63 154.346 93.305 153.684 91.355L150.536 82.3244C150.181 81.3261 149.826 80.3047 149.518 79.3064C149.471 79.1439 149.305 79.0975 149.187 79.0975C148.927 79.3993 148.548 79.794 148.004 79.9565C148.075 80.3047 147.933 80.7458 147.625 81.5583L145.282 87.6174C144.312 90.1246 143.673 91.5871 143.27 92.6318C142.939 93.4443 142.442 93.6764 141.898 93.7229L141.14 93.7925C140.998 93.9086 141.046 94.2568 141.188 94.3497C141.803 94.3264 142.631 94.28 143.389 94.28C144.454 94.3032 145.164 94.3032 145.779 94.3497C145.992 94.2568 145.992 93.9086 145.826 93.7925L145.069 93.7229C144.525 93.6764 144.406 93.5372 144.406 93.2818C144.406 93.0264 144.572 92.4228 144.903 91.4246L145.708 89.0567C145.874 88.5924 146.016 88.5227 146.584 88.5227H150.039C150.725 88.5227 150.82 88.5924 150.986 89.0799L152.003 92.121C152.193 92.655 152.311 93.0728 152.311 93.305C152.311 93.5371 151.98 93.6532 151.506 93.6997L150.844 93.7693C150.678 93.8854 150.702 94.2336 150.891 94.3265C151.554 94.3032 152.429 94.2568 153.518 94.2568C154.559 94.2568 155.34 94.28 156.287 94.3265C156.405 94.2336 156.453 93.8854 156.287 93.7693L155.624 93.7461ZM149.731 87.6406H146.915C146.276 87.6406 146.252 87.6174 146.442 87.1066L147.885 83.2065C148.146 82.5333 148.359 81.9994 148.43 81.8833H148.477C148.619 82.1619 148.808 82.7655 148.998 83.2994L150.228 86.9673C150.441 87.5477 150.394 87.6406 149.731 87.6406ZM150.654 68.9294C150.654 68.558 150.796 67.9544 151.719 67.9544C152.571 67.9544 152.808 68.4883 152.95 68.9526L152.974 68.9758C152.997 69.0223 153.045 69.0223 153.116 69.0223C153.187 69.0223 153.281 68.9991 153.329 68.9294L153.352 68.9062V68.883C153.352 68.5115 153.281 67.9776 153.187 67.7222L153.163 67.6758H153.116C153.045 67.6758 152.926 67.6526 152.808 67.6294C152.571 67.5597 152.216 67.5133 151.909 67.5133C150.702 67.5133 149.897 68.1865 149.897 69.1848C149.897 70.0437 150.56 70.6009 150.962 70.8562L151.861 71.4366C152.524 71.8545 152.619 72.2724 152.619 72.6902C152.619 73.2009 152.264 73.6885 151.506 73.6885C150.536 73.6885 150.11 72.9688 149.944 72.342V72.3188C149.921 72.2724 149.873 72.2491 149.802 72.2491C149.731 72.2491 149.637 72.2724 149.589 72.342L149.566 72.3652V72.3884C149.589 72.8063 149.708 73.5027 149.826 73.7349V73.7581H149.85C150.039 73.8742 150.56 74.1063 151.364 74.1063C152.619 74.1063 153.471 73.3867 153.471 72.2956C153.471 71.5527 153.068 70.9491 152.24 70.4384L151.483 69.9741C151.151 69.858 150.654 69.4634 150.654 68.9294ZM148.264 74.0367C148.311 74.0135 148.335 73.9438 148.311 73.8974C148.311 73.851 148.264 73.8045 148.217 73.7813H148.193C147.956 73.7581 147.743 73.6652 147.578 73.526C146.915 72.992 146.394 72.2027 145.684 71.0652C145.637 70.9955 145.637 70.9491 145.637 70.9259C145.945 70.7866 146.844 70.3455 146.844 69.3009C146.844 68.5115 146.394 68.1169 146.016 67.9312C145.542 67.6758 144.927 67.6526 144.383 67.6526C143.507 67.6526 142.821 67.6758 142.253 67.7222H142.229C142.182 67.7455 142.134 67.8151 142.134 67.8847C142.134 67.9544 142.158 68.0473 142.205 68.0705H142.229L142.56 68.1169C142.868 68.1633 142.915 68.2098 142.915 69.1384V72.5045C142.915 73.5027 142.892 73.5492 142.418 73.5956L142.158 73.6188L142.134 73.642C142.087 73.7117 142.063 73.8045 142.087 73.851C142.111 73.9206 142.134 73.967 142.182 73.9903H142.205H142.229C142.655 73.967 143.01 73.967 143.412 73.967C143.815 73.967 144.146 73.967 144.548 73.9903H144.572H144.596C144.667 73.9438 144.69 73.8742 144.69 73.8277C144.69 73.7349 144.667 73.6652 144.619 73.642L144.596 73.6188L144.383 73.5956C143.886 73.526 143.862 73.4795 143.862 72.5045V71.3205C143.862 71.1813 143.862 71.1813 144.241 71.1813C144.596 71.1813 144.738 71.2741 144.856 71.4598C144.998 71.6688 145.164 71.9241 145.329 72.1795C145.495 72.4349 145.661 72.6902 145.779 72.8759C146.442 73.7813 146.939 74.0831 147.814 74.0831C147.98 74.1063 148.146 74.0831 148.264 74.0367ZM145.377 70.5545C145.116 70.7634 144.738 70.7866 144.43 70.7866C144.004 70.7866 143.862 70.7634 143.815 70.7634C143.815 70.717 143.815 70.6241 143.815 70.508V68.3258C143.815 68.1169 143.815 68.0937 144.359 68.0937C145.424 68.0937 145.803 68.8366 145.803 69.4634C145.826 69.9741 145.684 70.3223 145.377 70.5545ZM140.454 72.667V72.6206C140.407 72.5277 140.312 72.4813 140.241 72.4813C140.194 72.4813 140.146 72.5045 140.123 72.5277L140.099 72.5509C139.815 73.0849 139.578 73.3635 139.46 73.4331C139.247 73.526 138.963 73.5724 138.277 73.5724C137.472 73.5724 137.283 73.4795 137.164 73.3867C137.022 73.2474 136.999 72.9456 136.999 72.4581V71.1348C136.999 70.9491 136.999 70.9491 137.235 70.9491H137.78C138.111 70.9491 138.371 70.9491 138.49 70.9955C138.632 71.0188 138.703 71.1116 138.726 71.2973L138.821 71.6688L138.845 71.692C138.892 71.7384 138.939 71.7616 139.034 71.7616C139.129 71.7616 139.2 71.7384 139.223 71.6688V71.6456C139.223 71.5527 139.223 71.4366 139.2 71.2973C139.2 71.1348 139.176 70.9259 139.176 70.7402C139.176 70.5545 139.2 70.3455 139.2 70.1598C139.2 70.0205 139.223 69.8812 139.223 69.7884V69.7651V69.7419C139.2 69.6955 139.129 69.6491 139.034 69.6491C138.963 69.6491 138.892 69.6723 138.845 69.7187L138.75 70.1366C138.703 70.3455 138.655 70.392 138.561 70.4152C138.466 70.4384 138.182 70.4616 137.78 70.4616H137.235C136.999 70.4616 136.999 70.4616 136.999 70.2759V68.3955C136.999 68.0937 136.999 68.0937 137.212 68.0937H137.898C138.3 68.0937 138.608 68.0937 138.797 68.1401C139.223 68.2562 139.318 68.5115 139.46 68.9294L139.484 68.9758L139.507 68.9991C139.531 69.0455 139.602 69.0687 139.649 69.0687C139.72 69.0687 139.815 69.0455 139.862 68.9758L139.886 68.9526L139.862 68.8133C139.815 68.2794 139.768 67.8151 139.72 67.6526L139.697 67.583L139.626 67.6062C139.507 67.6294 138.939 67.6294 138.348 67.6294H136.549C136.17 67.6294 135.863 67.6294 135.437 67.6062H135.413H135.389C135.318 67.6526 135.295 67.7455 135.295 67.7919C135.295 67.8615 135.318 67.9312 135.366 67.9776L135.555 68.0008C136.052 68.0472 136.076 68.1169 136.076 69.1151V72.4813C136.076 73.5027 136.028 73.5492 135.555 73.5724L135.224 73.5956L135.2 73.6188C135.153 73.6652 135.129 73.7581 135.153 73.8277C135.176 73.8974 135.2 73.9438 135.247 73.967H135.271H135.295C135.839 73.9438 136.17 73.9438 136.596 73.9438H137.448C138.277 73.9438 139.105 73.9438 140.004 73.967H140.052L140.075 73.9206C140.146 73.7349 140.383 72.992 140.454 72.667ZM133.922 68.024C133.969 67.9776 133.969 67.8847 133.969 67.8151C133.969 67.7455 133.922 67.699 133.875 67.6758H133.851H133.827C133.496 67.699 133.212 67.699 132.904 67.699C132.526 67.699 132.171 67.699 131.91 67.6758H131.887H131.863C131.816 67.699 131.768 67.7687 131.768 67.8383C131.768 67.908 131.792 67.9776 131.839 68.024L131.863 68.0473L132.052 68.0705C132.384 68.1169 132.407 68.1865 132.407 68.1865C132.407 68.2562 132.407 68.349 132.336 68.5348C132.171 68.9526 131.721 70.0205 131.461 70.6241C131.39 70.7866 131.295 70.9955 131.2 71.2277C131.011 71.6456 130.798 72.1563 130.609 72.5509C130.159 71.5295 129.733 70.508 129.331 69.4634C129.047 68.7901 128.881 68.3026 128.857 68.1865C128.881 68.1633 128.952 68.1169 129.236 68.0705L129.402 68.0473L129.425 68.024C129.473 67.9776 129.496 67.908 129.496 67.8383C129.496 67.7687 129.449 67.699 129.402 67.6758H129.378H129.354C128.928 67.699 128.597 67.699 128.195 67.699C127.792 67.699 127.485 67.699 127.201 67.6758H127.177L127.153 67.699C127.106 67.7222 127.059 67.7919 127.059 67.8615C127.059 67.9312 127.082 68.0008 127.13 68.0473L127.153 68.0705L127.343 68.0937C127.721 68.1401 127.84 68.3026 128.053 68.8133L129.733 72.8759C129.922 73.3634 130.088 73.7813 130.159 74.1063V74.1528L130.183 74.176C130.23 74.1992 130.301 74.1992 130.348 74.1992C130.396 74.1992 130.467 74.176 130.49 74.1528L130.514 74.1295V74.1063C130.68 73.5956 131.129 72.5045 131.508 71.6688L132.029 70.508C132.478 69.533 132.833 68.7901 133.094 68.3723C133.212 68.1865 133.354 68.0937 133.543 68.0705L133.922 68.024ZM127.698 81.0243C125.946 82.3476 124.81 84.4834 124.81 86.9673C124.81 89.8692 126.23 91.9121 128.053 93.1425C129.733 94.2336 131.697 94.6515 133.756 94.6515C135.224 94.6515 136.88 94.3032 137.377 94.1407C137.638 94.0479 137.898 93.955 138.182 93.9086C138.537 93.4907 139.129 92.005 139.271 90.8442C139.176 90.6817 138.845 90.6353 138.679 90.7514C138.158 92.0746 136.857 93.955 133.898 93.955C130.135 93.955 127.106 91.355 127.106 86.6423C127.106 81.9994 130.088 79.8172 133.591 79.8172C136.904 79.8172 137.945 81.5583 138.277 83.0905C138.442 83.2298 138.774 83.2065 138.892 83.044C138.703 81.6744 138.584 80.2583 138.561 79.7475C138.348 79.7707 138.182 79.7243 137.922 79.6547C136.833 79.3529 135.105 79.1207 133.875 79.1207C131.484 79.1207 129.354 79.7475 127.698 81.0243ZM124.763 72.5045V69.1848C124.763 68.1633 124.787 68.0937 125.284 68.0705L125.544 68.0473H125.568C125.615 68.024 125.639 67.9544 125.639 67.8615C125.639 67.8383 125.615 67.7222 125.544 67.6758H125.52H125.497C125.047 67.699 124.716 67.699 124.313 67.699C123.911 67.699 123.58 67.699 123.106 67.6758H123.083H123.059C122.988 67.7222 122.964 67.8151 122.964 67.8615C122.964 67.9544 122.988 68.0008 123.035 68.0473H123.059L123.319 68.0705C123.793 68.1169 123.84 68.1865 123.84 69.1848V72.5045C123.84 73.5027 123.816 73.5724 123.319 73.6188L123.059 73.642L123.035 73.6652C122.988 73.7117 122.964 73.8045 122.988 73.8742C122.988 73.9438 123.035 73.9903 123.083 74.0135H123.106H123.13C123.603 73.9903 123.935 73.9903 124.337 73.9903C124.716 73.9903 125.047 73.9903 125.52 74.0135H125.544H125.568C125.639 73.967 125.662 73.8742 125.662 73.8277C125.662 73.7581 125.639 73.6885 125.591 73.642L125.331 73.5956C124.787 73.5724 124.763 73.526 124.763 72.5045ZM119.982 90.8907V82.9047C119.982 80.5368 120.03 80.1422 121.379 80.0261L121.947 79.9797C122.089 79.8868 122.041 79.4922 121.899 79.4225C120.763 79.469 119.982 79.4922 119.059 79.4922C118.089 79.4922 117.332 79.469 116.172 79.4225C116.03 79.4922 115.983 79.8868 116.125 79.9797L116.693 80.0261C118.042 80.1422 118.089 80.5136 118.089 82.9047V90.8907C118.089 93.2586 118.042 93.5836 116.693 93.7461L116.125 93.8157C115.983 93.955 116.03 94.3032 116.172 94.3729C117.308 94.3265 118.089 94.3032 119.059 94.3032C119.982 94.3032 120.763 94.3265 121.899 94.3729C122.041 94.3032 122.089 93.9086 121.947 93.8157L121.379 93.7461C120.03 93.5836 119.982 93.2586 119.982 90.8907ZM121.142 68.024C121.189 67.9776 121.213 67.908 121.213 67.8383C121.213 67.7687 121.166 67.7222 121.118 67.6758L121.095 67.6526H121.071C120.763 67.6758 120.503 67.6758 120.101 67.6758C119.769 67.6758 119.462 67.6758 118.988 67.6526H118.965H118.941C118.894 67.6758 118.846 67.7222 118.823 67.7919C118.799 67.8847 118.823 67.9544 118.894 68.0008L118.917 68.024L119.107 68.0473C119.438 68.0937 119.604 68.1401 119.651 68.2098C119.769 68.3955 119.84 69.0687 119.84 70.1134V72.1098C119.84 72.2027 119.84 72.2956 119.84 72.3652C119.509 72.0402 119.154 71.6456 118.728 71.1813L117.403 69.7187C116.456 68.6741 115.912 68.0008 115.793 67.699L115.77 67.6526H115.722C115.604 67.6758 115.462 67.6758 115.296 67.6758C115.131 67.6758 114.634 67.6758 114.231 67.6526H114.208H114.184C114.137 67.6758 114.089 67.7222 114.089 67.7919C114.066 67.8615 114.089 67.9544 114.137 68.0008L114.16 68.024L114.35 68.0473C114.61 68.0705 114.799 68.1401 114.894 68.2562C115.06 68.4419 115.083 68.6276 115.083 68.883V71.6688C115.083 72.1098 115.083 73.1777 114.965 73.4795C114.941 73.526 114.87 73.5956 114.61 73.6188L114.326 73.642L114.302 73.6652C114.255 73.7117 114.231 73.7813 114.255 73.851C114.255 73.9206 114.302 73.9903 114.35 74.0135L114.373 74.0367H114.397C114.728 74.0135 114.989 74.0135 115.391 74.0135C115.722 74.0135 116.03 74.0135 116.503 74.0367H116.527L116.551 74.0135C116.598 73.9903 116.622 73.9438 116.645 73.8742C116.645 73.8045 116.645 73.7349 116.598 73.6885L116.574 73.6652L116.243 73.642C116.006 73.6188 115.864 73.5724 115.817 73.5027C115.722 73.317 115.651 72.6206 115.651 71.5991V69.5562C115.651 69.3937 115.651 69.208 115.675 69.0919C115.817 69.2544 116.077 69.5562 116.314 69.8116C116.48 69.9973 116.622 70.1598 116.716 70.2527L118.917 72.7134C119.651 73.526 120.006 73.9438 120.124 74.1295L120.148 74.1528H120.195C120.314 74.1528 120.408 74.1063 120.456 73.9903V73.967V73.9438C120.432 73.8277 120.432 73.4563 120.432 72.3188V69.9509C120.432 69.4634 120.432 68.4651 120.574 68.1865C120.598 68.1633 120.692 68.0937 121.047 68.024H121.142ZM112.598 68.0008C112.646 67.9544 112.669 67.8615 112.646 67.8151C112.646 67.7455 112.598 67.699 112.551 67.6758L112.527 67.6526H112.504C112.172 67.6758 111.912 67.6758 111.51 67.6758C111.155 67.6758 110.8 67.6758 110.421 67.6526H110.397L110.374 67.6758C110.326 67.699 110.303 67.7687 110.279 67.8151C110.279 67.8847 110.279 67.9544 110.326 68.0008L110.35 68.024L110.61 68.0473C110.823 68.0705 110.989 68.1169 111.036 68.2098C111.155 68.3955 111.202 69.0687 111.202 70.1134V71.1813C111.202 72.2724 110.894 73.5956 109.38 73.5956C108.102 73.5956 107.51 72.8295 107.51 71.1813V69.1616C107.51 68.1633 107.534 68.0937 108.007 68.0473L108.244 68.024H108.267C108.315 68.0008 108.338 67.9312 108.338 67.8615C108.338 67.7919 108.315 67.7222 108.244 67.6758H108.22H108.196C107.747 67.699 107.415 67.699 107.037 67.699C106.634 67.699 106.303 67.699 105.853 67.6758H105.83H105.806C105.735 67.699 105.711 67.7919 105.711 67.8615C105.711 67.9312 105.735 68.0008 105.782 68.024H105.806L106.066 68.0473C106.54 68.0937 106.563 68.1633 106.563 69.1616V71.367C106.563 72.5045 106.8 73.2009 107.344 73.6188C107.77 73.967 108.386 74.1528 109.167 74.1528C109.924 74.1528 110.634 73.8742 111.036 73.4563C111.486 72.9688 111.723 72.2259 111.723 71.1813V70.1134C111.723 69.6491 111.723 68.5348 111.841 68.233C111.888 68.1401 112.054 68.0705 112.267 68.0473L112.527 68.024L112.598 68.0008ZM101.641 79.9797C101.783 79.8868 101.735 79.4922 101.593 79.4225C100.599 79.469 99.842 79.4922 98.9427 79.4922C97.9487 79.4922 97.1913 79.4457 96.0553 79.4225C95.9133 79.4922 95.866 79.8868 96.008 79.9797L96.5997 80.0261C97.783 80.119 97.9487 80.4904 97.9487 82.8583V90.9371C97.9487 93.305 97.9013 93.5139 96.6233 93.7461L96.2447 93.8157C96.1027 93.955 96.15 94.3032 96.292 94.3729C97.1913 94.3497 97.9723 94.3032 98.9427 94.3032C99.842 94.3032 100.623 94.3265 101.854 94.3729C101.996 94.3032 102.043 93.9086 101.901 93.8157L101.238 93.7461C99.9603 93.6068 99.842 93.305 99.842 90.9371V87.7799C99.842 87.1066 99.8893 87.0602 100.978 87.0602H107.534C108.622 87.0602 108.67 87.1066 108.67 87.7799V90.9371C108.67 93.305 108.67 93.5139 107.273 93.7461L106.847 93.8157C106.705 93.955 106.753 94.3032 106.895 94.3729C107.912 94.3265 108.717 94.3032 109.664 94.3032C110.563 94.3032 111.344 94.3265 112.433 94.3729C112.575 94.3032 112.622 93.9086 112.48 93.8157L111.936 93.7461C110.61 93.5836 110.563 93.305 110.563 90.9371V82.8583C110.563 80.4904 110.61 80.1654 111.936 80.0261L112.409 79.9797C112.551 79.8868 112.504 79.4922 112.362 79.4225C111.32 79.469 110.563 79.4922 109.664 79.4922C108.717 79.4922 107.936 79.469 106.895 79.4225C106.753 79.4922 106.705 79.8868 106.847 79.9797L107.273 80.0261C108.622 80.1654 108.67 80.4904 108.67 82.8583V85.4352C108.67 86.1316 108.622 86.1548 107.534 86.1548H100.978C99.8893 86.1548 99.842 86.1316 99.842 85.4352V82.8583C99.842 80.4904 99.8893 80.1654 101.215 80.0261L101.641 79.9797ZM100.718 72.667V72.6206C100.67 72.5277 100.576 72.4813 100.481 72.4813C100.434 72.4813 100.386 72.5045 100.363 72.5277L100.339 72.5509C100.055 73.0849 99.8183 73.3635 99.7 73.4331C99.487 73.526 99.203 73.5724 98.5167 73.5724C97.712 73.5724 97.5227 73.4795 97.428 73.3867C97.286 73.2474 97.2623 72.9456 97.2623 72.4581V71.1348C97.2623 70.9491 97.2623 70.9491 97.499 70.9491H98.0433C98.3747 70.9491 98.635 70.9491 98.7533 70.9955C98.8953 71.0188 98.9427 71.1116 98.99 71.2973L99.0847 71.6688L99.1083 71.692C99.132 71.7384 99.203 71.7616 99.2977 71.7616C99.3923 71.7616 99.4633 71.7384 99.487 71.6688V71.6456C99.487 71.5527 99.487 71.4366 99.4633 71.2973C99.4633 71.1348 99.4397 70.9259 99.4397 70.7402C99.4397 70.5545 99.4633 70.3455 99.4633 70.1598C99.4633 70.0205 99.487 69.8812 99.487 69.7884V69.7651V69.7419C99.4633 69.6955 99.3923 69.6491 99.2977 69.6491C99.2267 69.6491 99.1557 69.6723 99.132 69.7187L99.0373 70.1366C98.99 70.3455 98.9427 70.392 98.848 70.4152C98.7533 70.4384 98.4693 70.4616 98.067 70.4616H97.5227C97.286 70.4616 97.286 70.4616 97.286 70.2759V68.3955C97.286 68.0937 97.286 68.0937 97.499 68.0937H98.1853C98.5877 68.0937 98.8953 68.0937 99.0847 68.1401C99.5107 68.2562 99.6053 68.5115 99.7473 68.9294L99.771 68.9758L99.7947 68.9991C99.8183 69.0455 99.8893 69.0687 99.9603 69.0687C100.031 69.0687 100.126 69.0455 100.15 68.9758L100.173 68.9526L100.15 68.8133C100.102 68.2794 100.055 67.8151 100.008 67.6526L99.984 67.583L99.913 67.6062C99.7947 67.6294 99.203 67.6294 98.635 67.6294H96.8127C96.4577 67.6294 96.1263 67.6294 95.7003 67.6062H95.6767H95.653C95.582 67.6526 95.5583 67.7455 95.5583 67.7919C95.5583 67.8615 95.582 67.9312 95.6293 67.9776L95.8187 68.0008C96.3157 68.0472 96.3393 68.1169 96.3393 69.1151V72.4813C96.3393 73.5027 96.292 73.5492 95.8187 73.5724L95.4873 73.5956L95.4637 73.6188C95.4163 73.6652 95.3927 73.7581 95.4163 73.8277C95.4163 73.8974 95.4637 73.9438 95.511 73.967H95.5347H95.5583C96.1027 73.9438 96.434 73.9438 96.86 73.9438H97.712C98.5403 73.9438 99.3687 73.9438 100.268 73.967H100.315L100.339 73.9206C100.41 73.7349 100.647 72.992 100.718 72.667ZM92.742 72.5277V69.1616C92.742 68.1633 92.7657 68.0937 93.239 68.0473L93.4283 68.024L93.452 68.0008C93.4993 67.9776 93.523 67.908 93.523 67.8151C93.523 67.7919 93.4993 67.6758 93.4283 67.6294H93.4047H93.381C92.9313 67.6526 92.6 67.6526 92.2687 67.6526C91.8663 67.6526 91.5113 67.6526 91.109 67.6294H91.0853H91.0617C90.9907 67.6758 90.967 67.7687 90.967 67.8151C90.967 67.8847 90.9907 67.9544 91.038 68.0008L91.251 68.024C91.748 68.0705 91.7717 68.1401 91.7717 69.1384V70.2062C91.7717 70.4384 91.7717 70.4384 91.3693 70.4384H88.6477C88.2453 70.4384 88.2453 70.4384 88.2453 70.2062V69.1384C88.2453 68.1401 88.269 68.0705 88.7423 68.024L88.9317 68.0008L88.9553 67.9776C89.0027 67.9544 89.0263 67.8847 89.0263 67.7919C89.0263 67.7687 89.0027 67.6526 88.9317 67.6062H88.908H88.8843C88.4583 67.6294 88.127 67.6294 87.772 67.6294C87.5117 67.6294 87.2987 67.6294 87.062 67.6062C86.92 67.6062 86.7543 67.6062 86.565 67.583H86.636H86.6123C86.5413 67.6294 86.5177 67.7222 86.5177 67.7687C86.5177 67.8615 86.5413 67.908 86.5887 67.9544H86.6123L86.8727 67.9776C87.2987 68.0008 87.3697 68.0937 87.3697 69.0919V72.4581C87.3697 73.4331 87.346 73.4795 86.8727 73.5492L86.6833 73.5724L86.6597 73.5956C86.6123 73.642 86.5887 73.7349 86.6123 73.8045C86.636 73.8742 86.6597 73.9206 86.707 73.9438H86.7307H86.7543C86.8963 73.9438 87.0147 73.9438 87.133 73.9206C87.3697 73.9206 87.5827 73.8974 87.8667 73.8974C88.2217 73.8974 88.5293 73.8974 89.0737 73.9206H89.0973H89.121C89.192 73.8974 89.2157 73.8045 89.2157 73.7349C89.2157 73.6652 89.192 73.5956 89.1447 73.5492L88.837 73.5027C88.3873 73.4563 88.3163 73.4099 88.3163 72.4116V71.0884C88.3163 70.8562 88.3163 70.8562 88.7187 70.8562H91.4403C91.8427 70.8562 91.8427 70.8562 91.8427 71.0884V72.4116C91.8427 73.4099 91.8427 73.4331 91.322 73.5027L91.109 73.526L91.0853 73.5492C91.038 73.5956 91.0143 73.6885 91.038 73.7581C91.0617 73.8277 91.0853 73.8742 91.1327 73.8974H91.1563H91.18C91.6297 73.8742 91.961 73.8742 92.3397 73.8742C92.7183 73.8742 93.0497 73.8742 93.4993 73.8974H93.523H93.5467C93.6177 73.851 93.6413 73.7581 93.6413 73.7117C93.6413 73.642 93.6177 73.5724 93.5703 73.526L93.31 73.4795C92.7657 73.5724 92.742 73.526 92.742 72.5277ZM84.9083 67.5365V67.5133L84.8847 67.4901C84.8373 67.4205 84.7427 67.4204 84.719 67.4204C84.6953 67.4204 84.6717 67.4204 84.6243 67.4437H84.6007L84.577 67.4669C84.4587 67.6758 84.4113 67.699 83.8907 67.699H79.9383C79.5123 67.699 79.323 67.6758 79.2757 67.4669V67.4437L79.252 67.4204C79.2283 67.3972 79.181 67.374 79.11 67.374C79.0863 67.374 79.0153 67.374 78.968 67.3972L78.9443 67.4204V67.4437C78.8733 67.8151 78.7313 68.4187 78.5893 68.8366V68.8598L78.613 68.883C78.6603 68.9991 78.8733 69.0455 78.968 68.9758H78.9917V68.9526C79.0863 68.7437 79.181 68.5348 79.394 68.3258C79.607 68.1401 80.0803 68.1169 80.5063 68.1169H81.027C81.24 68.1169 81.24 68.1169 81.24 68.349V72.5277C81.24 73.5492 81.1927 73.5956 80.7193 73.6188L80.3643 73.642H80.3407C80.2933 73.6652 80.246 73.7349 80.246 73.8277C80.246 73.8974 80.2697 73.967 80.3407 73.9903H80.3643H80.388C80.9797 73.967 81.3347 73.967 81.7133 73.967C82.092 73.967 82.3997 73.967 82.9677 73.9903H82.9913H83.015C83.086 73.967 83.1097 73.8742 83.1097 73.8045C83.1097 73.7349 83.086 73.6652 83.0387 73.6188L82.7073 73.5724C82.234 73.526 82.2103 73.4795 82.2103 72.4813V68.2794C82.2103 68.1865 82.2103 68.0937 82.234 68.0705C82.2577 68.0473 82.3523 68.0473 82.4233 68.0473H83.1097C83.6303 68.0473 83.9617 68.1169 84.1747 68.2794C84.2693 68.349 84.3403 68.5812 84.3877 68.9062V68.9294L84.4113 68.9526C84.435 68.9991 84.506 69.0223 84.577 69.0223C84.6717 69.0223 84.7427 68.9758 84.7663 68.9294V68.9062V68.883C84.7427 68.6741 84.8137 67.908 84.9083 67.5365ZM78.4237 86.9906C78.4237 89.8924 79.8437 91.9353 81.666 93.1657C83.3463 94.2568 85.3107 94.6747 87.3697 94.6747C88.837 94.6747 90.4937 94.3265 90.9907 94.1639C91.251 94.0711 91.5113 93.9782 91.7953 93.9318C92.1503 93.5139 92.742 92.0282 92.884 90.8674C92.7893 90.7049 92.458 90.6585 92.2923 90.7746C91.7717 92.0978 90.47 93.9782 87.5117 93.9782C83.7487 93.9782 80.7193 91.3782 80.7193 86.6656C80.7193 82.0226 83.7013 79.8404 87.204 79.8404C90.5173 79.8404 91.5587 81.5815 91.89 83.1137C92.0557 83.253 92.387 83.2298 92.5053 83.0673C92.316 81.6976 92.1977 80.2815 92.174 79.7707C91.961 79.794 91.819 79.7475 91.535 79.6779C90.47 79.3761 88.7187 79.1439 87.488 79.1439C85.0977 79.1439 82.9677 79.7707 81.311 81.0476C79.5597 82.3476 78.4237 84.4834 78.4237 86.9906ZM72.4597 83.1833V67.5365C59.656 66.3293 50 67.5365 50 67.5365C50 67.5365 50 83.1601 50 83.1833C51.0177 93.7925 61.147 95.0229 61.2417 94.9997C63.0403 94.6979 71.513 93.0264 72.4597 83.1833ZM53.5973 87.1066C53.8103 87.2459 54.047 87.2924 54.26 87.3852C54.544 88.0817 54.26 88.7781 54.118 88.4995C53.8577 87.9888 53.7393 87.5709 53.5973 87.1066ZM53.621 79.4225C53.5737 79.3993 52.1773 80.2815 51.278 79.8636C51.9643 79.4922 54.3073 78.0296 54.9463 77.6118C55.254 77.6814 55.3723 77.5653 55.467 77.4957C55.2303 77.5189 54.402 77.635 54.828 76.9153C54.9937 77.5653 56.1297 76.9617 56.532 76.8689C57.668 76.6135 57.668 77.7975 57.5733 78.3082C57.526 78.4939 57.9283 78.6332 58.1177 78.5868C57.7863 79.3761 57.242 78.6332 57.171 78.935C57.1473 79.0511 56.7687 79.1439 56.7687 79.469C56.7687 79.8868 56.9343 79.6547 56.958 79.9797C56.9817 80.2815 56.816 80.0493 56.8633 80.3975C56.9107 80.9315 57.81 80.3279 58.1887 80.4672C58.378 80.5368 58.4963 80.6993 58.6857 80.6761C58.733 80.6297 58.7093 80.4208 58.7093 80.3511C58.6857 80.1886 58.378 80.1654 58.2123 79.9333C58.094 79.7243 58.3543 79.1207 58.52 78.935C58.733 79.9332 59.7033 79.6315 59.8453 80.6761C59.94 80.9779 59.514 81.3029 59.8453 81.7904C59.585 82.0226 59.2773 83.1833 59.8217 83.7173C59.727 83.9726 59.6087 84.5298 60.082 84.8548C59.9163 85.1798 59.9637 85.5977 60.1057 86.0155C59.8217 86.0155 59.869 84.3905 58.1177 84.3441C58.0703 84.3209 58.0703 84.5298 58.1177 84.6226C58.3307 84.9941 58.6147 84.9709 58.5437 85.8298C58.52 86.1316 58.3543 85.7834 58.2597 85.6905C58.0467 85.5048 57.881 85.4816 57.7863 84.878C57.0763 85.4352 57.1473 86.0852 57.1947 86.4334C57.1947 86.4334 57.029 86.0155 56.8633 85.5745C56.8633 85.5512 57.597 84.6691 57.7153 84.4834C59.2063 81.8601 56.745 85.3423 56.745 85.3191C56.603 85.0173 56.5083 84.7619 56.4137 84.6691C56.4373 84.6226 56.8397 84.1816 57.029 83.8101C58.1887 81.4654 56.3427 84.5994 56.2717 84.5298C56.1297 84.4137 56.0113 84.2512 55.9403 84.2976C55.9167 84.6691 55.822 84.5994 55.8693 84.9709C55.68 85.2262 55.254 85.6209 54.97 85.8066C54.97 85.8066 54.899 85.1566 54.9227 85.1334C55.0647 84.9709 55.6327 84.3673 55.751 84.1816C57.6443 81.2797 54.8753 84.878 54.8517 84.8548C54.828 84.7387 54.686 84.553 54.5203 84.3905C54.5203 84.3905 55.1357 83.578 55.2777 83.2762C56.4137 80.9547 54.3547 84.2976 54.331 84.2976C54.2837 84.2744 54.2837 84.2744 54.2127 84.2512C54.1653 84.228 54.2837 83.578 54.3547 83.1833C54.5203 82.4172 54.0943 83.044 53.976 84.2512C53.8577 84.2744 53.621 84.2976 53.5027 84.3905C53.5737 84.7155 53.6447 84.4601 53.7867 84.7852C53.9523 85.1566 53.55 85.7834 53.905 86.2245C54.047 86.387 54.047 86.3638 54.0233 86.4798C53.8103 86.4566 53.692 86.4566 53.55 86.6423C53.2897 85.4816 53.2897 84.9012 53.3607 83.7173C53.3843 83.1833 53.5737 82.3476 53.479 82.3476C53.408 82.3244 52.1537 85.4816 51.846 86.1084C51.3253 85.9227 52.1773 83.2065 53.266 81.8833C53.3607 81.4654 52.698 82.3012 52.2957 82.6494C51.917 82.9512 51.4673 83.369 50.9467 83.2298C51.6093 82.5565 53.1003 81.2797 53.266 80.9779C53.408 80.6993 52.2483 81.8137 51.0177 81.3958C51.7513 80.9779 53.5973 80.0493 53.621 79.4225ZM55.822 85.3423C55.822 85.6209 55.7983 85.853 55.893 86.1316C56.035 86.5727 55.964 86.4334 55.7747 86.2941C55.6327 86.1316 55.4907 85.9923 55.4197 85.8066C55.396 85.6673 55.4907 85.6673 55.822 85.3423ZM58.7803 78.2386C58.591 77.9368 58.9933 77.6582 58.9933 77.6582C58.9933 78.4939 60.082 77.9136 60.65 78.1921C60.792 78.2618 60.8867 78.3779 60.934 78.4939C60.3187 78.0761 59.1827 78.9118 58.7803 78.2386ZM52.343 71.5295C51.3727 71.5295 51.3963 70.0902 52.343 70.0902C53.2897 70.0902 53.2897 71.5295 52.343 71.5295ZM52.343 74.3849C51.349 74.3849 51.349 72.9456 52.343 72.9456C53.2897 72.9688 53.3133 74.3849 52.343 74.3849ZM54.189 71.2973H53.337V70.4848H54.189V71.2973ZM54.189 74.1528H53.337V73.3402H54.189V74.1528ZM61.076 75.5689C61.076 75.5689 60.1767 75.1046 59.1353 75.0349C58.1177 74.9653 56.0823 75.7546 54.5203 75.6617V68.9062C54.5203 68.9062 56.319 69.1383 57.0527 68.8598C59.5613 67.908 61.0997 68.9758 61.0997 68.9758V75.5689H61.076ZM62.8037 76.6832C62.851 76.9385 62.6143 77.0082 62.6143 77.0082C62.993 77.101 63.1587 76.8689 63.2533 76.7296C63.3953 77.31 62.8037 77.3564 62.6143 77.3796C62.6143 77.3796 62.922 77.4725 62.9457 77.6582C62.993 78.1457 63.3007 78.1225 63.3717 78.0761C63.348 78.1457 63.2533 78.4475 62.8983 78.1689C62.8273 78.2386 62.993 78.3314 63.0403 78.5636C63.0877 78.8654 63.064 79.1672 63.4427 79.3529C63.206 79.5386 62.9457 79.0743 62.922 79.1207C62.8983 79.1904 63.2297 79.3529 62.851 80.2118C62.6853 80.119 62.78 80.1422 62.567 79.91C62.425 79.794 62.354 79.7475 62.4723 79.9565C62.6853 80.235 62.7563 80.8386 62.6617 81.0011C62.4723 80.9315 62.5197 80.7922 62.3067 80.5833C62.283 80.6761 62.3777 81.0708 62.5907 81.2797C62.9693 81.6279 63.1113 82.0226 63.1113 82.1154C63.135 82.4172 63.0403 82.8351 63.0167 83.2298C62.8273 83.2065 62.6853 82.6958 62.638 82.719C62.5907 82.7422 62.6617 83.2298 63.0167 83.5316C63.1823 84.0191 63.1113 84.2744 63.064 84.2744C63.0167 84.2976 62.8273 83.7869 62.709 83.8798C63.206 85.1102 62.851 85.528 62.7327 85.9227C62.638 85.528 62.5907 85.2495 62.4487 84.8084C62.1883 85.0173 62.1173 85.3191 61.786 85.5977C61.786 85.0869 61.4783 83.8798 61.2653 83.6012C61.2653 83.578 60.8393 84.6923 60.65 85.1798C60.4133 85.8066 60.366 86.5959 60.65 87.2227C60.0347 86.3638 59.9873 84.7852 60.508 84.5762C60.5553 84.4601 60.4843 84.0887 60.366 84.1351C60.3423 84.3209 60.3423 84.4601 60.2003 84.6459C59.798 84.5298 59.9873 84.0423 60.011 83.8798C60.5317 83.2762 60.2003 83.1137 60.1767 83.1369C60.1293 83.2762 60.082 83.4387 59.9163 83.5083C59.585 82.9512 59.798 82.069 60.437 81.3958C60.4607 81.1404 60.153 81.5815 59.94 81.5583C59.8927 81.094 60.0583 80.2583 60.9577 80.235C60.792 80.1886 60.6973 80.1654 60.65 80.0029C60.9103 79.9565 61.7623 79.91 61.644 79.2368C61.573 79.3065 61.5257 79.4457 61.3127 79.5618C61.1707 79.6547 61.005 79.6547 60.9103 79.5386C61.3127 79.3993 61.1707 78.935 60.65 79.0743C60.4843 79.1207 60.2713 78.9582 60.2477 78.7725C60.366 78.8886 60.6027 78.7957 60.721 78.7261C61.289 78.3546 61.644 78.8886 61.7387 79.0047C61.7623 79.0047 61.999 78.4707 61.1707 78.3314C61.0997 78.1457 60.9103 77.8207 60.3423 77.8439C60.153 77.2171 59.6087 77.5189 59.6087 77.8207C59.017 77.4028 59.6087 76.8457 59.869 76.776C60.0347 76.7992 59.9873 77.31 60.295 77.2171C60.366 77.1939 60.0583 76.8689 60.1767 76.7064C60.437 76.5671 60.437 76.8921 60.579 76.776C60.65 76.5439 60.9103 76.4278 61.1233 76.4046C61.7387 76.3349 62.212 76.985 62.8037 76.6832ZM68.247 75.6849C66.9217 75.7778 64.2 75.0349 63.5137 75.0349C62.0937 75.0349 61.3837 75.5921 61.3837 75.5921C61.3837 75.5921 61.3837 69.2312 61.3837 68.9991C61.3837 68.9991 63.2533 68.1401 64.626 68.6276C66.3063 69.2312 68.247 68.9758 68.247 68.9758V75.6849ZM69.9747 73.0849C70.7083 72.992 70.803 73.8277 70.803 73.8277C70.6137 73.6885 70.2587 73.6188 70.022 73.7813C69.2173 74.292 68.4837 74.292 68.4837 74.292V73.0152C68.4837 72.992 68.6493 73.2706 69.9747 73.0849ZM70.8267 71.3205C70.8267 71.2741 70.803 71.2277 70.803 71.1348C70.7793 70.9955 70.4007 70.9259 70.1403 71.042C69.7617 71.2045 68.8387 71.7152 68.5073 71.6223V70.3455C69.3357 70.6937 69.667 70.3687 69.9273 70.3687C70.7557 70.3687 70.803 71.1348 70.803 71.1348C70.8267 71.2277 70.8267 71.2741 70.8267 71.3205ZM69.9037 84.5994C69.667 84.6691 69.0043 84.9244 68.8623 85.1566C68.9333 83.7869 68.4837 82.4405 68.3417 82.1154C68.0577 81.4886 68.46 83.578 68.4837 84.0655C68.4837 84.0887 66.1643 81.1404 67.5607 83.4155C67.9157 83.9959 68.4837 84.3905 68.4837 84.3905C68.4837 84.8084 68.46 85.0869 68.389 85.3191C68.247 85.4352 65.2413 81.3958 66.898 84.1816C67.111 84.5298 68.318 85.5745 68.2943 85.5977C68.2233 85.7602 68.0813 85.9923 67.892 86.1548C67.8683 86.1316 67.2057 85.6441 67.2057 85.6209C67.1583 85.3191 67.1583 85.0173 66.756 85.2262C66.756 85.2262 65.265 83.5315 65.9513 84.7155C66.259 85.2262 66.4483 85.2959 66.5193 85.3887C66.5193 85.3887 66.2827 85.6905 66.2117 86.0155C66.188 86.1548 64.9337 84.6459 65.4307 85.5977C65.5963 85.8995 66.1643 86.2245 66.1643 86.2477C66.117 86.4334 66.046 86.6423 65.975 86.7584C65.904 86.9209 64.7917 87.7799 64.7917 87.7799C64.7917 87.7799 65.0047 87.1066 65.478 86.7584C65.7383 86.5727 65.7383 86.6191 65.9277 86.5031C65.9277 86.4102 65.833 86.2477 65.691 86.2013C65.5253 86.1548 65.0047 86.2477 65.0047 86.2477C65.052 85.9923 64.8153 85.4352 64.839 84.8316C64.6497 84.8548 64.2947 85.1566 64.2237 85.3191C64.1527 86.3173 63.9397 86.0155 63.7267 86.7352C63.49 86.4334 63.7503 85.9923 63.5137 85.7137C63.206 85.3191 63.1587 85.0637 63.1113 84.5762C63.1823 84.5298 63.49 84.2048 63.206 83.4851C63.1587 82.3708 63.6557 81.9529 62.7563 81.1636C62.8273 81.1404 62.8983 80.5833 62.8983 80.5833C63.561 80.9315 63.4427 80.1886 63.703 80.0261C64.1053 79.794 64.0343 79.5386 63.845 79.2368C65.0283 79.5618 63.7977 80.3511 64.3183 80.3743C64.697 80.3975 64.9573 80.2815 65.123 80.0261C65.3123 79.7475 65.0993 79.585 65.5963 79.1439C65.6437 79.0975 65.7857 78.8189 65.3833 78.7261C65.2887 78.7029 65.3833 78.3779 65.3833 78.3779C65.0757 78.6332 64.9573 79.0047 64.4603 78.7725C64.2 78.6564 64.0343 78.7725 63.916 78.8189C63.916 78.8189 63.8687 78.61 64.0817 78.5404C64.6497 78.3546 64.7917 78.1457 64.7443 78.0064C64.6733 77.7278 64.6497 78.0064 64.6733 77.7046C64.6733 77.5886 64.8153 77.426 64.9337 77.2868C65.3123 76.8457 65.5727 77.0082 65.6673 77.0546C65.8803 76.8921 65.9277 76.8921 66.1407 76.8225C66.4957 76.6832 67.253 76.9153 67.679 77.101C67.892 77.1939 68.1287 77.2403 68.3653 77.1939C68.3653 77.31 68.2707 77.3796 68.1997 77.4028C68.0577 77.4493 67.9157 77.4028 67.9157 77.4957C67.9157 77.5421 68.105 77.5653 68.2233 77.5886C68.8623 77.7511 69.667 78.3082 69.1463 78.1921C69.0753 78.1689 69.525 78.5171 69.88 78.9582L71.087 80.0958C71.0397 80.1654 70.6137 80.0958 69.2647 78.8654C69.0753 79.0279 70.8977 80.3743 71.6313 81.7904C71.5603 81.8369 70.6373 81.5119 70.306 81.1636C69.7853 80.6297 69.1937 79.3064 68.957 79.4922C68.9333 79.4922 69.951 81.0476 70.448 81.9762C70.7083 82.4405 70.9213 83.1137 70.9213 83.6012C70.9923 86.0852 70.6137 85.8995 70.6137 85.8995C70.022 83.9494 69.738 81.6744 68.886 80.6297C68.5783 80.3279 69.8563 82.5797 69.9037 84.5994ZM67.2767 86.8281C67.0163 87.0602 66.827 87.1298 66.898 87.037C66.969 86.8977 67.0163 86.8048 67.04 86.712C67.0637 86.6656 67.2767 86.8281 67.2767 86.8281ZM67.111 86.5263C67.1583 86.3173 67.1583 86.178 67.2057 85.9923C67.2293 85.9227 67.2293 85.9227 67.2293 85.853C67.2293 85.8298 67.7973 86.3173 67.8447 86.3405C67.7027 86.5263 67.5843 86.5727 67.4423 86.712C67.324 86.6191 67.111 86.5495 67.111 86.5263ZM68.9807 87.1531C68.176 87.9424 66.969 87.6406 66.0223 88.0584C65.1703 88.3602 64.5313 89.1495 63.632 89.3353C63.3717 89.4281 63.3243 89.5442 63.49 89.5442C63.5847 89.5442 64.129 90.1014 65.0047 89.6603C65.2887 89.521 66.2117 89.0103 66.3537 88.987C65.8567 89.4513 65.62 89.8692 65.1703 90.1014C64.91 90.2406 63.7977 90.6353 62.709 90.4264C62.212 90.3335 61.857 90.7746 61.9753 90.7746C62.2357 90.7049 62.5197 90.7514 62.709 90.9603C63.0167 91.2157 63.49 91.5175 63.8923 91.0532C64.0343 90.9139 64.6497 90.5889 65.2413 91.1692C64.6023 91.146 64.6733 92.2371 63.49 92.121C63.0403 92.121 62.07 91.1228 61.786 91.4246C61.289 91.9585 62.851 92.4925 62.1647 93.1657C61.5493 93.7925 60.8393 92.6782 60.8393 92.6782C61.218 92.8407 61.928 92.9336 61.5967 92.33C61.4783 92.0978 61.2417 91.8657 61.2417 91.4246C61.1943 91.1925 59.798 93.1889 58.875 92.2835C58.52 91.9353 57.7863 91.1692 57.1237 90.8674C58.875 90.7281 59.1353 91.4014 59.23 91.5175C59.798 92.2603 60.3187 91.5175 60.437 91.3782C60.6263 91.1692 60.8867 90.8907 60.792 90.8442C60.1057 90.5192 59.3247 90.4496 58.7567 90.7282C59.9873 89.0567 60.9577 90.6121 60.9577 90.6121C61.0997 90.7049 60.9103 89.6138 59.7033 89.5674C58.946 89.521 58.2597 90.2174 57.739 90.2174C57.313 90.2174 56.0113 89.3585 55.7037 88.5924C56.461 89.1495 57.4313 89.4745 58.023 89.1263C59.159 88.4531 60.579 89.4746 60.65 89.3353C60.3423 89.1031 59.6087 88.1513 57.668 88.6852C56.9107 89.1031 56.603 88.3602 56.1297 88.3602C56.9107 87.6638 57.455 88.012 57.739 88.0352C57.81 88.0352 57.4077 87.7102 57.1237 87.687C54.97 87.4781 53.5973 86.8977 53.5973 86.8977C53.5973 86.8977 53.7867 86.4798 54.7097 86.7816C54.7097 86.7816 53.8813 86.2709 53.8813 85.6441C53.905 85.2494 54.0943 84.8316 53.7867 84.5066C55.041 84.4601 54.1417 86.178 55.0173 86.5959C55.041 86.5959 54.757 86.178 55.1593 85.8762C55.3487 86.387 55.7983 86.6423 56.106 86.712C56.177 86.6656 56.2717 86.5263 56.2717 86.5263C55.9403 85.9923 55.893 85.3655 55.9877 84.6459H56.0113C56.0823 84.6459 56.2007 84.9012 56.2953 85.0637C56.4847 85.4584 56.4847 85.9923 56.8397 86.4566C57.0527 86.712 57.171 86.9673 57.3367 87.0834C57.4077 86.8977 57.3603 86.5959 57.3367 86.5263C57.2893 86.2245 57.1 85.737 57.6207 85.2727C57.8573 85.9459 58.1887 85.7602 58.2123 86.062C58.2833 86.5031 58.2597 86.4334 58.2123 86.7816C58.236 87.2691 58.6857 87.3852 59.0643 87.687C59.94 88.1513 60.5317 88.4067 60.9103 89.0103C61.0997 87.9888 58.2833 87.7799 58.662 85.8298C58.6147 85.0405 58.7567 84.9709 58.1887 84.5066C59.3247 84.5298 59.9163 86.3405 59.9873 86.6888C60.1057 87.2924 60.4843 87.3388 60.9813 88.1281C61.0523 88.1513 60.0583 86.0155 61.2417 84.1816C61.2417 84.1816 61.644 85.1334 61.4547 85.7602C61.3363 86.1316 61.4547 86.5495 61.4783 86.7816C61.502 87.0138 61.431 85.9227 62.283 85.3423C62.3303 85.7602 62.7563 86.4102 62.354 87.1066C61.8807 87.9424 61.857 87.6406 61.8333 88.6852C61.8807 88.662 61.999 87.9656 62.3303 87.5709C63.0167 86.7352 62.5197 86.2709 63.1823 85.5512C63.2297 85.9227 63.3243 85.7602 63.3717 86.0852C63.4663 86.8048 62.6853 87.6174 62.851 87.5942C63.0403 87.5709 63.3717 87.4084 63.4663 86.8513C63.4663 86.8513 63.7503 87.362 63.49 87.5245C63.0167 87.8263 62.922 88.1513 62.993 88.5227C63.3717 88.0817 63.8923 87.5941 63.7977 86.9673C63.845 86.5959 64.271 86.4334 64.342 85.5512C64.3657 85.412 64.5077 85.2262 64.6497 85.1566C64.5787 85.6441 64.981 86.178 64.5313 86.7816C64.626 86.8281 65.0047 86.3173 65.5727 86.5031C64.4603 86.712 64.7917 87.8727 63.9397 88.4299C63.6793 88.5924 63.7267 88.7781 63.6557 88.8013C64.413 88.7549 65.0047 87.8727 65.0993 87.8031C65.8567 87.2924 66.0223 87.2227 66.33 86.387C66.4483 86.0852 66.3537 85.9459 66.7797 85.5048C66.969 85.9227 66.685 86.7816 66.6377 86.9673C66.4957 87.362 66.0223 87.7102 66.117 87.7102C68.176 86.8281 68.1287 86.2245 68.6257 85.5977C68.7677 85.3655 69.5013 84.9244 69.7617 84.9012C69.6907 85.0405 69.4067 85.2495 69.4067 85.5048C69.383 85.9459 69.241 86.2245 69.0043 86.5727C69.1227 86.7352 69.383 86.2709 69.6197 86.5031C69.383 86.5727 69.241 86.9441 68.9807 87.1531ZM69.3357 87.037C69.2173 87.6174 69.0043 88.1745 68.6493 88.662C68.389 89.0103 68.2943 88.3138 68.5073 87.6638C68.815 87.5477 69.1227 87.2924 69.3357 87.037ZM67.7737 72.1795C67.7263 72.1563 67.6317 72.1331 67.5607 72.1331C67.4897 72.1331 67.466 72.2259 67.537 72.2491C67.5843 72.2724 67.679 72.2724 67.7737 72.2724C67.821 72.2956 67.821 72.2027 67.7737 72.1795ZM67.537 72.4581C67.5843 72.4813 67.679 72.4813 67.7737 72.5045C67.821 72.5045 67.821 72.4116 67.7737 72.3884C67.7263 72.3652 67.6317 72.342 67.5607 72.342C67.4897 72.3652 67.466 72.4349 67.537 72.4581ZM67.537 73.7349C67.4897 73.6885 67.3713 73.5724 67.253 73.5027C67.182 73.5492 67.0637 73.642 66.969 73.6885C66.898 73.6188 66.827 73.526 66.7087 73.4331C66.6377 73.4795 66.4247 73.6652 66.33 73.7349C66.472 73.7349 66.6613 73.7813 66.6613 73.8974C66.6613 73.9903 66.6613 74.5938 66.6613 74.7099C66.7323 74.7331 66.827 74.7099 66.9453 74.7099C66.9453 74.6171 66.9453 73.9206 66.9453 73.851C66.9927 73.8277 67.04 73.8045 67.0637 73.7813C67.111 73.8045 67.253 73.967 67.324 74.0135C67.3713 73.967 67.5133 73.851 67.5843 73.7813C67.6553 73.7349 67.5843 73.6885 67.537 73.7349ZM67.182 72.7367C67.253 72.5974 67.3713 72.3884 67.3713 72.2259C67.3713 72.017 67.2293 71.7152 66.9453 71.6223C66.5667 71.7616 66.33 72.0402 66.33 72.4116C66.33 72.6206 66.4957 73.0384 66.8743 73.0384C66.9453 72.9224 67.0637 72.8063 67.182 72.7367ZM66.9453 72.8063C66.8743 72.7831 66.614 72.5741 66.5667 72.4349C66.4957 72.2259 66.4957 72.017 66.7087 71.8777C66.8743 71.9473 67.0873 72.1098 67.0873 72.2491C67.111 72.4581 67.04 72.6902 66.9453 72.8063ZM66.9217 71.2509L67.2057 70.9491C67.2057 70.9491 67.0873 70.8562 67.0163 70.7634C67.0163 70.6937 67.0163 70.1134 67.04 70.0902C66.827 69.9044 66.685 69.8812 66.5903 69.9044C66.4247 69.9277 66.259 70.1366 66.188 70.2062C66.1407 70.2527 66.1643 70.3223 66.188 70.3687C66.2117 70.3919 66.259 70.4152 66.3063 70.4384C66.3063 70.4384 66.2827 70.4384 66.2827 70.4152C66.2117 70.4848 66.0933 70.6937 66.0933 70.833C66.0933 70.9723 66.2353 71.1813 66.3063 71.2509C66.401 71.1813 66.543 71.0652 66.756 71.0187C66.8033 71.1348 66.8507 71.2045 66.9217 71.2509ZM66.756 70.5777C66.614 70.5312 66.3537 70.4152 66.259 70.3223C66.2353 70.2991 66.2353 70.2991 66.259 70.2527C66.33 70.1598 66.401 70.0902 66.4483 70.0902C66.4957 70.0902 66.756 70.2294 66.756 70.2991C66.756 70.3455 66.7797 70.4616 66.756 70.5777ZM66.7797 70.9723C66.7087 70.9723 66.6377 70.9955 66.5667 71.042C66.4957 70.9723 66.3063 70.7634 66.4483 70.508C66.4247 70.4848 66.401 70.4848 66.401 70.4848C66.5193 70.5545 66.685 70.6241 66.8033 70.6473C66.8033 70.7402 66.8033 70.833 66.8033 70.8795C66.756 70.9027 66.756 70.9491 66.7797 70.9723ZM65.975 69.7651C65.904 69.7651 65.478 69.7651 65.4543 69.7419C65.4307 69.6491 65.407 69.533 65.478 69.3937C65.5253 69.3241 65.4543 69.2776 65.407 69.3705C65.3833 69.4401 65.1703 69.7419 64.9337 69.8348C64.8153 69.8812 65.0757 69.9741 65.052 69.9741C65.052 70.2527 65.0993 70.6705 65.1467 70.8562C65.194 70.9491 65.3123 71.1116 65.3833 71.0652C65.4307 71.042 65.549 70.8098 65.5963 70.7866C65.6673 70.7402 65.5963 70.6473 65.549 70.6937C65.5017 70.7402 65.4307 70.6705 65.4307 70.6241C65.407 70.5777 65.3597 69.9509 65.3833 69.9277C65.3833 69.9277 65.904 69.858 65.9513 69.858C66.0223 69.8812 66.0223 69.7651 65.975 69.7651ZM64.5787 70.9027L64.7917 70.6241C64.626 70.6009 64.5787 70.5777 64.4603 70.4616V69.7884L64.2473 69.5794H64.1763L63.845 69.8812C63.8213 69.9277 63.8923 69.9277 63.9397 69.8812L64.1763 70.0205V70.6705C64.2 70.7402 64.271 70.833 64.3657 70.9259H64.5787V70.9027ZM64.3893 69.4169L64.5077 69.3241V69.1616L64.342 68.9991L64.1763 69.1384V69.3241L64.271 69.4169H64.3893ZM63.845 69.208C63.7503 69.208 63.4427 69.2312 63.348 69.2312C63.2297 69.2544 63.2297 69.3009 63.3243 69.3009C63.419 69.3009 63.4427 69.3241 63.49 69.4401C63.5373 69.5562 63.3243 70.1134 63.2533 70.2294C63.1823 70.1366 62.9693 69.6491 62.9693 69.5794C62.9693 69.533 63.064 69.4866 63.1113 69.4634C63.206 69.4401 63.206 69.3705 63.135 69.3705C62.9457 69.3473 62.3303 69.3008 62.212 69.2776C62.141 69.2776 62.0937 69.3705 62.1883 69.3705C62.283 69.3705 62.4013 69.3473 62.496 69.5098C62.6143 69.6955 63.0167 70.5312 63.1113 70.9027C63.1587 70.833 63.561 69.6955 63.5847 69.5562C63.6083 69.4401 63.703 69.3241 63.8213 69.2776C63.9397 69.2776 63.9397 69.2312 63.845 69.208ZM61.9517 71.9706C61.9517 72.4349 62.141 72.4813 62.3777 72.5974C62.5907 72.7134 62.9457 72.6902 63.206 72.6206C63.3007 72.5974 63.348 72.5974 63.348 72.667C63.348 72.7134 63.419 72.7134 63.419 72.667C63.419 72.6206 63.419 72.2259 63.419 72.1795C63.419 72.1331 63.348 72.1331 63.348 72.1795C63.348 72.2491 63.348 72.2724 63.277 72.3652C63.0877 72.6206 62.638 72.6206 62.4013 72.2956C62.3303 72.1795 62.2357 72.0402 62.3303 72.017C62.425 71.9938 62.709 72.0402 62.8983 72.0634C63.0167 72.0634 63.277 72.0866 63.3243 72.1098C63.348 72.1331 63.3953 72.1563 63.3953 72.1098C63.3953 72.0634 63.3953 71.8777 63.3953 71.8081C63.3953 71.7616 63.348 71.7848 63.3243 71.8081C63.3007 71.8313 63.0167 71.8777 62.8983 71.9009C62.78 71.9241 62.425 71.9473 62.3303 71.9241C62.2357 71.9009 62.2593 71.7152 62.354 71.5991C62.5907 71.2741 63.0877 71.2973 63.277 71.5759C63.348 71.6688 63.348 71.692 63.348 71.7616C63.348 71.8081 63.419 71.8081 63.419 71.7616C63.419 71.7152 63.419 71.2277 63.419 71.2045C63.419 71.158 63.348 71.158 63.348 71.2045C63.348 71.2509 63.277 71.2509 63.1823 71.2509C63.0403 71.2045 62.5907 71.2741 62.3777 71.367C62.212 71.4598 61.9517 71.692 61.9517 71.9706ZM62.0227 72.8063C62.0227 72.9456 62.07 74.1063 62.07 74.2688C62.07 74.3617 62.1883 74.4545 62.3067 74.5242C62.354 74.4545 62.4723 74.292 62.5907 74.2224C62.638 74.176 62.6143 74.1528 62.567 74.1528C62.4723 74.1992 62.3777 74.1528 62.3777 74.0599C62.3777 73.967 62.3777 72.9688 62.3777 72.8063C62.283 72.8295 62.0937 72.8295 62.0227 72.8063ZM63.0167 73.7581C62.9457 73.8277 62.8037 74.0135 62.8037 74.1528C62.8037 74.292 62.8747 74.4313 62.9693 74.501C63.1113 74.4081 63.206 74.2688 63.4427 74.176C63.4663 74.292 63.561 74.292 63.6557 74.3617C63.703 74.292 63.916 74.0599 63.9633 74.0135C64.0107 73.967 63.987 73.9206 63.916 73.967C63.845 74.0135 63.7977 73.9903 63.703 73.8742C63.703 73.8045 63.703 73.317 63.7267 73.2938C63.632 73.2009 63.5373 73.0617 63.419 73.0617C63.2533 73.0849 63.0403 73.3635 62.993 73.4331C62.9457 73.4795 62.993 73.6885 63.0167 73.7117C62.993 73.7581 62.993 73.7581 63.0167 73.7581ZM63.135 73.851C63.2297 73.8974 63.277 73.8742 63.419 73.851C63.419 73.9438 63.419 74.0135 63.419 74.0599C63.348 74.1063 63.277 74.1528 63.1823 74.1992C63.1113 74.1295 62.993 74.0831 63.135 73.851ZM63.0403 73.4331C63.1113 73.3402 63.135 73.317 63.1823 73.317C63.2297 73.317 63.3953 73.4331 63.3953 73.5027C63.3953 73.5492 63.3953 73.6652 63.3953 73.7581C63.277 73.7813 63.1823 73.7813 63.0403 73.6652C63.0167 73.6652 63.0167 73.4795 63.0403 73.4331ZM64.0817 73.2474C63.9633 73.2938 64.2237 73.3867 64.2 73.3867C64.2 73.6652 64.129 74.1295 64.2473 74.2688C64.3183 74.3617 64.4367 74.4081 64.5313 74.3849C64.626 74.3385 64.7443 74.176 64.768 74.1528C64.839 74.1063 64.768 74.0599 64.7207 74.1063C64.6733 74.1528 64.5077 74.1295 64.5077 74.0599C64.484 74.0135 64.484 73.3867 64.5077 73.3867C64.5077 73.3867 64.697 73.3867 64.7443 73.3867C64.7917 73.3867 64.7917 73.2706 64.7443 73.2706C64.6733 73.2706 64.5313 73.2474 64.5313 73.2242C64.5077 73.1777 64.5313 72.9688 64.5787 72.8992C64.626 72.8295 64.555 72.7831 64.5077 72.8527C64.4603 72.9688 64.271 73.1545 64.0817 73.2474ZM64.129 71.9706C64.129 72.2259 64.0107 72.5045 63.845 72.6438C64.1053 72.5741 64.1527 72.4116 64.2947 72.2491C64.3657 72.3652 64.5313 72.5045 64.626 72.5741C64.697 72.5277 64.91 72.2956 64.9573 72.2259C64.7917 72.1795 64.5077 72.017 64.413 71.8545C64.342 71.7384 64.3657 71.6688 64.4367 71.5759C64.484 71.6456 64.8627 71.8081 65.0283 71.5295C64.839 71.4598 64.697 71.3438 64.626 71.2509C64.5787 71.2973 64.413 71.4598 64.3183 71.5063C64.2947 71.4134 64.1527 71.2973 64.0343 71.2973C63.987 71.3438 63.703 71.5527 63.5847 71.6223C63.5373 71.6455 63.561 71.7152 63.6083 71.7152C63.6557 71.692 63.7503 71.6223 63.845 71.5759C63.987 71.6223 64.1053 71.7384 64.129 71.9706ZM65.3833 72.017C65.407 71.8545 65.5253 71.7848 65.5963 71.7384C65.6673 71.8081 65.7383 71.9009 65.8567 71.9009C65.975 71.9009 66.0697 71.8545 66.117 71.8081C66.0223 71.7384 65.8093 71.5295 65.7857 71.483C65.691 71.5295 65.2177 71.7616 65.194 72.0402C65.1467 72.4349 65.265 72.5045 65.4307 72.7367C65.5253 72.8527 65.691 72.8759 65.762 72.8527C65.833 72.8063 66.1407 72.5277 66.1643 72.4813C66.188 72.4581 66.1407 72.4116 66.117 72.4581C66.0697 72.4813 66.0933 72.5045 66.046 72.5045C65.9987 72.5045 65.7857 72.5509 65.6673 72.4813C65.549 72.4116 65.336 72.2491 65.3833 72.017ZM65.1703 73.2706C65.0993 73.3402 64.981 73.4099 64.8863 73.526C64.981 73.526 65.052 73.5492 65.0993 73.642C65.1467 73.7349 65.0993 74.0831 65.123 74.2224C65.123 74.3617 65.2177 74.3849 65.3123 74.501C65.4307 74.4778 65.7147 74.3617 65.833 74.292C65.833 74.4081 65.975 74.5242 66.046 74.5474C66.0933 74.4778 66.1643 74.4545 66.2353 74.3849C66.1643 74.3385 66.1643 74.3153 66.1407 74.2224C66.117 74.1295 66.1407 73.7349 66.1407 73.5724C66.0697 73.4795 65.975 73.3635 65.8567 73.2938C65.7857 73.3635 65.691 73.4563 65.549 73.5724C65.6437 73.5492 65.8093 73.5956 65.833 73.6652C65.833 73.7581 65.8567 73.967 65.833 74.1295C65.8093 74.292 65.3597 74.2224 65.3597 74.1063C65.3597 73.9903 65.3833 73.6652 65.3833 73.526C65.3123 73.4099 65.2887 73.3634 65.1703 73.2706ZM62.212 77.1939C61.9517 77.1475 61.7623 76.9617 61.5257 76.8689C61.1943 76.7528 60.863 76.985 60.863 77.0314C60.863 77.1243 60.9577 77.1707 61.218 77.0082C61.005 77.2403 61.2417 77.426 61.2417 77.426C61.147 77.4028 61.0287 77.3796 60.9577 77.3332C60.934 77.426 61.0523 77.4493 61.1233 77.4957C61.5493 77.6814 61.8333 77.2635 62.212 77.1939ZM61.4783 77.426C61.4783 77.426 61.5967 77.31 61.5967 77.2171C61.5967 77.101 61.4783 77.0082 61.4783 77.0082C61.573 77.0314 61.8097 77.1707 61.9043 77.2171L61.4783 77.426ZM59.088 74.176L59.2063 74.0367C59.0643 74.0135 59.1353 74.0135 59.0643 73.9438V73.3867L58.875 73.1313H58.804L58.52 73.3867C58.449 73.4563 58.52 73.4795 58.591 73.4099L58.7803 73.5027V74.1063C58.804 74.176 58.8513 74.1992 58.946 74.292L59.088 74.176ZM59.159 72.2027C59.2537 72.4813 59.4903 72.5509 59.656 72.5741C59.7033 72.4813 59.798 72.342 59.8453 72.2724C59.9163 72.1795 59.8453 72.1098 59.798 72.2259C59.7507 72.3188 59.5377 72.2259 59.4667 72.1331C59.3483 72.0402 59.301 71.7848 59.372 71.692C59.4667 71.5991 59.585 71.6456 59.7507 71.6456C59.869 71.6456 59.869 71.5527 59.8927 71.5063C59.8453 71.483 59.7743 71.4366 59.656 71.3902C59.5613 71.4598 59.3957 71.5991 59.3247 71.6456C59.23 71.7152 59.0643 71.9473 59.159 72.2027ZM59.5613 73.7117C59.4667 73.8277 59.372 73.9438 59.372 74.0831C59.372 74.2224 59.4193 74.3617 59.5613 74.4313C59.6797 74.3385 59.8453 74.2224 60.011 74.1992C60.082 74.292 60.2003 74.3617 60.2713 74.4081C60.3187 74.3385 60.4843 74.2224 60.5317 74.176C60.579 74.1295 60.5317 74.0831 60.4843 74.1295C60.4607 74.176 60.3423 74.1528 60.3187 74.0831C60.3187 74.0135 60.2713 73.4099 60.295 73.3634C60.2003 73.2706 60.0347 73.0384 59.94 73.0384C59.7743 73.0617 59.5613 73.2706 59.4903 73.3402C59.4667 73.4099 59.514 73.6652 59.5613 73.7117C59.5613 73.6885 59.5613 73.6885 59.5613 73.7117ZM59.9637 73.7581C59.8453 73.7581 59.7507 73.7349 59.6087 73.6188C59.585 73.5956 59.5613 73.4563 59.585 73.4099C59.6323 73.317 59.6323 73.2938 59.6797 73.2938C59.727 73.2938 59.9637 73.4331 59.94 73.5027C59.9873 73.5492 59.9873 73.6652 59.9637 73.7581ZM59.656 73.7813C59.7743 73.851 59.8217 73.851 59.9637 73.8277C59.9637 73.8974 59.9637 73.967 59.9637 73.9903C59.9637 74.0135 59.9873 74.0367 59.9873 74.0831C59.9163 74.1063 59.8217 74.1295 59.7507 74.1528C59.6797 74.1063 59.4667 73.9438 59.656 73.7813ZM60.5553 72.6206L60.6737 72.4813C60.5317 72.4581 60.5317 72.4581 60.4607 72.3884V71.7384L60.3423 71.5527H60.2713L59.9873 71.8081C59.9163 71.8777 59.9873 71.9009 60.0583 71.8313L60.2003 71.9241V72.5277C60.224 72.5974 60.2713 72.6206 60.366 72.7134L60.5553 72.6206ZM60.3187 70.3455C60.2713 70.3455 60.1767 70.4384 60.508 70.4848C60.579 70.4848 60.65 70.3455 60.3187 70.3455ZM60.3187 70.1366C60.2713 70.1366 60.1767 70.2991 60.508 70.2759C60.579 70.2759 60.6263 70.1598 60.3187 70.1366ZM60.3897 71.158L60.2477 70.9955L60.1057 71.1348V71.3205L60.2003 71.4134H60.295L60.4133 71.3205V71.158H60.3897ZM60.082 69.7651C59.9873 69.6955 59.869 69.533 59.6323 69.533C59.3957 69.533 59.1117 69.7419 59.017 69.8812C58.8987 70.0669 59.0407 70.2294 59.2063 70.3455C59.1117 70.4384 58.9697 70.5545 58.8513 70.6705C58.8987 70.717 59.1827 70.8562 59.3483 70.8562C59.585 70.8562 59.798 70.7402 59.94 70.6241C60.1767 70.4384 60.1057 70.2294 59.8453 70.0902C59.8217 70.0669 59.798 70.0669 59.7743 70.0669C59.9163 69.9044 60.0583 69.8116 60.082 69.7651ZM59.4667 70.2759C59.5613 70.3223 59.6323 70.3455 59.727 70.392C59.869 70.4616 59.798 70.6009 59.656 70.6705C59.514 70.7402 59.2537 70.5545 59.2063 70.4848C59.2537 70.4384 59.3483 70.3455 59.4667 70.2759ZM59.727 69.9277C59.7033 69.9509 59.6323 69.9973 59.585 70.0437C59.5377 70.0437 59.514 70.0437 59.4667 70.0437C59.3483 70.0205 59.2773 69.9276 59.23 69.858C59.1827 69.7884 59.3247 69.7187 59.3957 69.7187C59.4667 69.7419 59.6323 69.8348 59.727 69.9277ZM58.7093 70.4616C58.3543 70.5545 58.165 70.2759 58.1413 70.183C58.2833 70.0437 58.5437 69.7884 58.6857 69.6723C58.591 69.5794 58.5437 69.4401 58.3543 69.4169C58.1887 69.4169 57.8337 69.6026 57.7627 70.0437C57.6917 70.4848 58.1177 70.717 58.449 70.717C58.5673 70.717 58.6857 70.5777 58.7567 70.5545C58.9223 70.4848 58.875 70.4152 58.7093 70.4616ZM58.094 70.0902C57.9993 69.7884 58.0467 69.6955 58.2123 69.5562C58.2597 69.6491 58.3543 69.7187 58.4253 69.7651C58.3307 69.858 58.165 70.0437 58.094 70.0902ZM57.6917 69.8348C57.7627 69.7652 57.6917 69.7419 57.6443 69.7884C57.597 69.7419 57.5023 69.6259 57.4313 69.5794C57.3603 69.6259 57.242 69.7187 57.1473 69.7419C57.0763 69.6723 57.0053 69.6723 56.887 69.5794C56.816 69.6259 56.674 69.7419 56.603 69.8348C56.745 69.8812 56.8397 69.8812 56.8633 69.9973C56.8633 70.0902 56.8633 70.6705 56.8633 70.7866C56.9343 70.8098 57.029 70.7866 57.1237 70.7866C57.1237 70.6937 57.1237 69.9741 57.1237 69.8812C57.171 69.858 57.1947 69.8348 57.2183 69.8116C57.2657 69.8348 57.3603 69.9741 57.4313 70.0205C57.4787 69.9741 57.6207 69.8812 57.6917 69.8348ZM56.532 71.367C56.3663 71.3902 56.1533 71.5527 56.0823 71.7152C56.0587 71.7848 56.106 71.9938 56.1297 72.017C56.1533 72.0402 56.177 72.0402 56.177 72.0634C56.0823 72.1563 55.964 72.2491 55.9877 72.3884C55.9877 72.5277 56.106 72.6438 56.248 72.7134C56.319 72.5974 56.4373 72.5277 56.5793 72.5045C56.5793 72.6206 56.6267 72.6902 56.6977 72.7367C56.745 72.6902 56.958 72.5045 57.0053 72.4581C57.0527 72.4116 57.0053 72.3652 56.958 72.4116C56.9343 72.4349 56.8633 72.3884 56.8397 72.3652C56.8397 72.2956 56.8397 71.692 56.8633 71.6456C56.7213 71.5527 56.6267 71.3438 56.532 71.367ZM56.5557 71.9938C56.39 72.1098 56.319 72.1098 56.2007 71.9706C56.1297 71.9009 56.1533 71.7616 56.177 71.7152C56.2243 71.6223 56.319 71.5527 56.3663 71.5527C56.4137 71.5527 56.5557 71.7152 56.532 71.8081C56.532 71.8313 56.532 71.9009 56.5557 71.9938ZM56.5557 72.2956C56.5557 72.3188 56.5557 72.3652 56.5557 72.3884C56.532 72.3884 56.4847 72.4116 56.4373 72.4349C56.3663 72.3884 56.0587 72.2724 56.2717 72.1331C56.39 72.2027 56.4373 72.1563 56.5557 72.0866C56.5557 72.1795 56.5557 72.2723 56.5557 72.2956ZM56.4137 70.9723C56.39 70.9491 56.3427 70.9027 56.3427 70.8562C56.3427 70.8098 56.3427 70.4384 56.3427 70.392C56.3427 70.3455 56.248 70.3455 56.248 70.392C56.248 70.4616 56.248 70.5777 56.2007 70.6705C56.035 70.9259 55.7037 71.0188 55.4907 70.717C55.4197 70.6241 55.396 70.4616 55.396 70.3455C55.3723 70.2062 55.4907 69.9973 55.5143 69.9741C55.7983 69.6026 56.2007 69.8812 56.2243 70.0205C56.248 70.1134 56.2717 70.2527 56.2717 70.2991C56.2717 70.3455 56.3663 70.3455 56.3663 70.2991C56.3663 70.2527 56.3663 69.6955 56.3663 69.6491C56.3663 69.6026 56.2953 69.6026 56.2953 69.6491C56.2953 69.7419 56.248 69.7419 56.177 69.7187C56.035 69.6723 55.7037 69.6026 55.5143 69.7187C55.3487 69.8116 55.0883 70.0437 55.112 70.3223C55.112 70.7866 55.3013 70.8098 55.4907 70.9491C55.68 71.0652 55.9403 70.9955 56.2007 70.9259C56.2953 70.9027 56.319 70.9491 56.3663 71.0187C56.4137 71.1348 56.461 71.0652 56.4137 70.9723ZM55.112 71.6223C54.9463 71.8545 54.8517 72.2491 55.1357 72.4813C55.2777 72.5974 55.3723 72.667 55.6563 72.6206C55.7037 72.5045 55.7273 72.4813 55.822 72.3652C55.6327 72.3884 55.4907 72.3652 55.3487 72.2491C55.0647 72.0402 55.1593 71.692 55.2303 71.5759C55.3723 71.367 55.5853 71.6688 55.6327 71.7152C55.68 71.6455 55.7747 71.5759 55.8457 71.5063C55.751 71.3902 55.7037 71.2973 55.6327 71.2277C55.4907 71.3205 55.2303 71.4598 55.112 71.6223ZM55.2303 73.7349C55.1593 74.176 55.5853 74.4313 55.7983 74.5242C55.8457 74.4313 55.964 74.2688 56.0587 74.1528C56.1297 74.0599 56.0587 74.0367 55.9877 74.1063C55.893 74.1992 55.609 74.1063 55.538 73.9903C55.68 73.8974 56.0113 73.5956 56.177 73.4795C56.0823 73.3867 55.9167 73.1545 55.893 73.0152C55.751 73.0849 55.3013 73.2706 55.2303 73.7349ZM55.6563 73.2706C55.7037 73.3634 55.822 73.5724 55.893 73.5956C55.7983 73.6885 55.538 73.851 55.467 73.8974C55.3487 73.7349 55.2777 73.5027 55.6563 73.2706ZM56.5793 73.1081C56.4847 73.1777 56.4137 73.2706 56.2953 73.3634C56.3427 73.4331 56.461 73.526 56.461 73.6188C56.461 73.7349 56.461 74.2688 56.461 74.4081C56.5557 74.4081 56.532 74.4081 56.6977 74.4081C56.674 74.3153 56.6977 73.6188 56.6977 73.526C56.7687 73.4795 56.7687 73.4563 56.8397 73.4099C56.887 73.4563 57.0053 73.4795 57.0053 73.5492C57.0053 73.6188 57.029 73.967 57.0053 74.0831C56.9817 74.2224 56.9817 74.3385 57.0763 74.501C57.1473 74.4313 57.384 74.2688 57.4313 74.2224C57.4787 74.176 57.455 74.1528 57.384 74.176C57.313 74.1992 57.313 74.1992 57.313 74.1528C57.313 74.0831 57.2893 73.7117 57.2657 73.4795C57.2657 73.2474 57.1473 73.1777 57.0763 73.1545C57.0053 73.2242 56.8633 73.317 56.7687 73.4099C56.6977 73.3402 56.6503 73.2242 56.5793 73.1081ZM57.5497 72.5277C57.6207 72.4581 57.6917 72.3652 57.7153 72.342C57.7863 72.2956 57.7153 72.2491 57.668 72.2956C57.6207 72.342 57.526 72.2491 57.5023 72.2259C57.455 72.1795 57.4077 71.6456 57.4313 71.6456C57.4313 71.6456 57.7863 71.5991 57.8337 71.5991C57.8573 71.5991 57.881 71.483 57.8337 71.483C57.7863 71.483 57.5023 71.5295 57.5023 71.483C57.4787 71.4366 57.455 71.2277 57.5497 71.0652C57.597 70.9955 57.5497 70.9259 57.526 70.9955C57.5023 71.0652 57.2893 71.3902 57.1473 71.4598C57.029 71.5063 57.0527 71.5295 57.1237 71.5527C57.171 71.5759 57.242 71.6223 57.242 71.6223C57.2183 71.9009 57.1947 72.2259 57.2893 72.3884C57.313 72.5045 57.4787 72.5974 57.5497 72.5277ZM58.733 72.667C58.6857 72.7599 58.6147 72.8295 58.4963 72.8759C58.5673 72.9456 58.662 73.0152 58.733 73.0617C58.804 72.9688 58.875 72.8992 58.9697 72.8295C58.875 72.8063 58.7803 72.7599 58.733 72.667ZM58.1887 72.3652C58.307 72.3652 58.4727 72.4116 58.662 72.4116C58.8987 72.3884 59.088 72.0402 58.9697 71.7616C58.875 71.5063 58.5673 71.5527 58.378 71.483C58.1887 71.4366 58.1177 71.3205 58.307 71.1813C58.5437 71.042 58.8277 71.2741 58.875 71.3205C58.9223 71.3902 58.946 71.3902 58.946 71.2973C58.946 71.0884 58.9223 71.2045 58.8987 70.9955C58.8987 70.9259 58.8277 70.9259 58.8277 70.9955C58.8277 71.0652 58.733 71.042 58.662 71.042C58.591 71.042 58.4017 71.0188 58.236 71.1116C58.1177 71.1813 57.881 71.367 58.023 71.5991C58.094 71.7384 58.591 71.8313 58.7093 71.9241C58.8277 71.9938 58.8513 72.2027 58.733 72.2956C58.591 72.4116 58.2123 72.3188 58.1413 72.2491C58.0703 72.1563 58.023 72.0866 58.023 71.9938C57.9993 71.9009 57.9283 71.9009 57.9283 71.9938C57.9283 72.0866 57.952 72.3884 57.9757 72.4813C57.9993 72.5509 58.0703 72.5277 58.0703 72.4813C58.094 72.3884 58.1413 72.3652 58.1887 72.3652ZM57.6917 73.3402C57.597 73.4099 57.81 73.5027 57.7863 73.5027C57.7863 73.7813 57.7627 74.0599 57.8573 74.1992C57.9283 74.292 58.094 74.3385 58.1413 74.2688C58.165 74.176 58.307 74.0135 58.3543 73.9903C58.4253 73.9438 58.3543 73.8974 58.307 73.9438C58.2123 74.0599 58.1413 73.9902 58.0703 73.9206C58.023 73.8742 58.023 73.5027 58.0467 73.4795C58.0467 73.4795 58.236 73.4563 58.2833 73.4563C58.307 73.4563 58.307 73.3402 58.2833 73.3402C58.236 73.3402 58.0467 73.3402 58.0467 73.317C58.023 73.2706 58.0703 73.0152 58.094 72.8992C58.094 72.8063 58.0467 72.7831 58.023 72.8759C57.9757 72.9224 57.7863 73.2706 57.6917 73.3402Z" fill="#E1E7ED"/>
</svg>
