<svg width="242" height="161" viewBox="0 0 242 161" fill="none" xmlns="http://www.w3.org/2000/svg">
<path fill-rule="evenodd" clip-rule="evenodd" d="M170.361 78.9691C171.107 83.2598 169.801 87.4564 166.724 90.1626C164.857 91.7471 161.313 92.4935 161.314 92.4929L124.938 103.127C124.716 103.171 124.495 103.217 124.272 103.264C123.091 103.512 121.888 103.765 120.553 103.686C118.781 103.5 117.102 103.034 115.423 102.566L83.6165 93.1468C83.1393 92.9999 82.6585 92.8639 82.1783 92.728C80.2184 92.1736 78.2692 91.6222 76.6212 90.3486C72.3299 87.1774 71.1174 81.5812 72.6101 76.5441C73.2634 74.5853 74.5689 72.7196 76.3416 71.2275C78.3929 69.5483 80.8178 68.8956 83.2433 68.3358L117.194 58.7285C117.428 58.6735 117.666 58.6145 117.907 58.5547C119.301 58.2089 120.8 57.8369 122.231 58.0757L162.806 69.7349C164.392 70.3876 165.79 71.3205 167.097 72.533C168.869 74.3058 169.988 76.4506 170.361 78.9691ZM82.5 80L86 72.5L123 68L153 72L162.5 76L157 90L107.5 93L84 89L82.5 80Z" fill="#F2F2F2"/>
<path fill-rule="evenodd" clip-rule="evenodd" d="M80.9708 89.525C78.5458 88.6857 76.2139 86.4467 75.4676 84.0218C74.4417 80.6634 75.0944 76.7458 77.5199 74.2278C78.7324 73.1084 80.1315 72.2691 81.6241 71.8959L117.348 61.7288C117.653 61.6609 117.959 61.5868 118.264 61.5128C119.638 61.1798 121.011 60.8468 122.385 61.0755L161.747 72.4551C163.704 73.2014 165.757 74.6004 166.69 76.5592C168.089 79.1708 168.275 83.0878 166.877 85.6999C165.943 87.8447 163.611 89.4303 161.56 90.0836L124.158 100.53C124.055 100.554 123.951 100.579 123.846 100.603L123.846 100.603L123.846 100.603C122.722 100.868 121.52 101.152 120.24 100.81C119.027 100.623 117.814 100.344 116.695 99.9711L80.9708 89.525ZM97.7606 73.4814H100.652V89.0576H97.574L91.5111 77.9582V89.0576H88.5264V73.4814H91.7906L97.7606 84.3948V73.4814ZM119.12 73.4814H126.395C130.032 73.4814 130.966 75.9064 130.966 77.492C130.966 79.731 129.753 80.3837 129.1 80.6639C130.966 81.4102 131.432 82.9028 131.432 84.4884C131.432 85.7009 130.966 86.9134 130.125 87.6597C129.286 88.592 128.447 89.0582 125.463 89.0582H119.12V73.4814ZM122.104 86.3536H125.929C127.421 86.3536 128.354 85.7003 128.354 84.1147C128.354 82.7151 127.234 82.2489 126.115 82.2489H122.104V86.3536ZM122.104 79.5438H125.742C126.955 79.5438 127.981 79.0777 127.981 77.8646C127.981 76.5591 127.141 76.1854 125.742 76.1854H122.104V79.5438ZM135.536 86.2595H142.904V89.0576H132.365V73.4814H135.536V86.2595ZM154.843 76.186H146.915V79.5438H154.191V82.2489H146.915V86.3536H155.216V89.0576H143.93V73.4814H154.843V76.186ZM109.733 89.416C114.49 89.416 118.314 85.5915 118.314 80.9276C118.314 76.1707 114.49 72.3467 109.733 72.3467C105.069 72.3467 101.245 76.1707 101.245 80.9276C101.245 85.5915 105.069 89.416 109.733 89.416ZM111.038 80.5543H110.106V78.1293H111.692L111.598 78.3159C111.505 78.4558 111.458 78.5724 111.412 78.689L111.412 78.689L111.412 78.689C111.365 78.8057 111.318 78.9223 111.225 79.0622C111.132 79.1552 111.038 79.3423 111.132 79.5289C111.225 79.7149 111.155 79.8779 111.085 80.041C111.015 80.2042 110.945 80.3676 111.038 80.5543ZM109.453 80.5543V78.1293H106.655C106.622 78.1951 106.601 78.2842 106.579 78.3759C106.538 78.5443 106.496 78.7219 106.375 78.7821C106.186 78.7821 106.167 78.6548 106.146 78.5147C106.136 78.447 106.125 78.3762 106.095 78.3153C105.967 78.2518 105.796 78.2751 105.641 78.2962L105.641 78.2962C105.569 78.306 105.501 78.3153 105.442 78.3153C105.329 78.3153 105.25 78.3838 105.164 78.4586C105.108 78.5072 105.049 78.5586 104.975 78.5955C104.975 78.6788 104.951 78.7703 104.926 78.8626C104.867 79.081 104.806 79.3041 105.068 79.4348C105.206 79.5036 105.293 79.3703 105.366 79.2577C105.392 79.2172 105.417 79.1794 105.442 79.1546C105.463 79.1546 105.488 79.15 105.517 79.1448C105.614 79.127 105.743 79.1035 105.815 79.2482C105.874 79.307 105.822 79.4025 105.775 79.4885C105.748 79.5393 105.722 79.5868 105.722 79.6214C105.661 79.7425 105.718 79.8241 105.766 79.8921C105.792 79.9289 105.815 79.9617 105.815 79.9945C105.908 80.0878 105.931 80.1811 105.955 80.2744C105.978 80.3677 106.002 80.461 106.095 80.5543H109.453ZM104.696 80.5543H105.536C105.442 80.4607 105.349 80.3677 105.256 80.3677C105.193 80.3365 105.142 80.2744 105.09 80.2122L105.09 80.2122C104.986 80.0877 104.883 79.9633 104.696 80.0881C104.696 80.1542 104.684 80.2086 104.673 80.2595L104.673 80.2595C104.653 80.3523 104.636 80.4338 104.696 80.5543ZM104.043 80.5543C104.043 79.9945 104.137 79.6214 104.137 79.6214C104.043 79.5281 104.043 79.3881 104.043 79.2483C104.043 79.1084 104.043 78.9686 103.95 78.8756C103.857 78.9686 103.764 78.9686 103.67 78.8756C103.635 78.8063 103.614 78.7111 103.59 78.6093C103.551 78.4372 103.508 78.2462 103.39 78.1293H102.271C101.991 78.8756 101.804 79.7149 101.804 80.5543H104.043ZM112.624 88.2964H112.718C113.463 88.0163 114.117 87.6431 114.676 87.0839H113.65C113.65 87.0839 113.091 87.9232 112.624 88.2964ZM106.655 88.2034C106.002 87.9232 105.349 87.5501 104.789 87.0839H105.815C105.94 87.3949 106.147 87.623 106.355 87.8513L106.355 87.8513C106.458 87.9652 106.562 88.0791 106.655 88.2034ZM104.043 86.4306C103.483 85.7773 102.924 85.0321 102.551 84.2858H104.51C104.696 85.0321 104.977 85.6843 105.35 86.4306H104.043ZM113.743 83.6325L113.837 83.4454C113.837 83.0733 113.743 82.7002 113.557 82.327L113.463 81.8609C113.403 81.68 113.304 81.6159 113.191 81.5429C113.129 81.5028 113.063 81.4599 112.997 81.3936C112.798 81.527 112.646 81.518 112.372 81.5019C112.262 81.4954 112.132 81.4877 111.971 81.4877C111.505 81.4877 111.412 81.2076 111.412 81.2076H110.106V82.234C110.106 82.327 110.106 82.42 110.199 82.5131C110.536 82.7153 110.435 83.063 110.353 83.3462C110.321 83.4552 110.293 83.5546 110.293 83.6325H113.743ZM106.375 83.6325V83.4454C106.335 83.2873 106.228 83.1625 106.125 83.0428C105.986 82.8807 105.855 82.7276 105.908 82.5131C105.864 82.2917 105.988 82.1123 106.11 81.9351C106.246 81.7389 106.38 81.5454 106.282 81.3006L106.188 81.2076H104.695V81.3006C104.632 81.6154 104.654 81.8879 104.675 82.1465C104.685 82.2708 104.695 82.3919 104.695 82.5131C104.727 82.6377 104.747 82.7623 104.768 82.8869L104.768 82.887C104.81 83.1355 104.851 83.384 104.975 83.6325H106.375ZM109.453 81.2076V82.0469C109.36 82.0469 109.173 81.9539 109.08 81.8609C109.08 81.6572 108.981 81.5026 108.891 81.3619C108.857 81.3092 108.825 81.2583 108.799 81.2076H109.453ZM102.271 83.6325C101.991 82.8862 101.804 82.0469 101.804 81.2076H104.043C104.043 81.8609 104.136 82.7002 104.322 83.6325H102.271ZM117.288 83.6325H116.729C116.729 83.6325 116.822 82.8862 116.635 82.7002C116.542 82.6061 116.635 82.42 116.822 82.234C116.915 81.9539 117.381 81.3936 117.661 81.2076C117.661 81.2076 117.848 81.9539 117.288 83.6325ZM114.863 77.476H114.956L114.676 76.8233L114.863 77.476ZM117.381 80.2747L117.008 80.3677L116.635 80.1811L116.356 79.8079L116.542 80.1811L116.635 80.2747L116.822 80.3677H117.008H117.101L117.381 80.2747ZM102.551 77.476H103.39C103.189 77.342 103.229 77.1118 103.267 76.8889C103.282 76.8014 103.297 76.7151 103.297 76.6361C103.247 76.537 103.277 76.4642 103.301 76.4038C103.323 76.3505 103.341 76.3068 103.297 76.263L103.295 76.2646C103.265 76.2955 102.821 76.7555 102.551 77.476ZM108.8 73.559C108.8 73.6355 108.722 73.6806 108.642 73.7265C108.527 73.7925 108.41 73.8602 108.52 74.0252L108.706 74.1187C108.427 74.0252 108.24 74.1187 108.147 74.3989C108.1 74.4458 108.077 74.4926 108.054 74.5394C108.03 74.5859 108.007 74.6324 107.961 74.679C107.892 74.679 107.818 74.6846 107.742 74.6904L107.742 74.6904C107.509 74.708 107.262 74.7267 107.121 74.5855C107.121 74.3989 107.214 74.3059 107.308 74.3059C107.448 74.3059 107.494 74.2124 107.541 74.119C107.588 74.0256 107.634 73.9321 107.774 73.9321C107.867 73.8389 107.984 73.8389 108.101 73.8389C108.217 73.8389 108.334 73.8389 108.427 73.7456C108.51 73.7456 108.575 73.6527 108.629 73.5747C108.697 73.4778 108.748 73.4038 108.8 73.559ZM109.173 74.3983C109.173 74.3053 109.267 74.2117 109.453 74.2117V74.5849C109.302 74.6356 109.232 74.5767 109.156 74.512C109.091 74.4572 109.021 74.3983 108.893 74.3983H109.173ZM109.453 77.476H107.214C107.161 77.3148 107.262 77.2463 107.357 77.1817C107.427 77.134 107.495 77.0885 107.495 77.0093C107.572 76.9314 107.667 76.8698 107.757 76.8109C107.882 76.7287 108 76.6518 108.054 76.5431C108.128 76.5062 108.216 76.5275 108.308 76.5496C108.448 76.5835 108.594 76.619 108.707 76.4496C108.801 76.356 108.894 76.263 108.801 76.1694C108.752 76.1661 108.707 76.1454 108.672 76.1111C108.638 76.0768 108.617 76.0312 108.614 75.9828C108.614 75.8708 108.715 75.8596 108.816 75.8483C108.883 75.8409 108.95 75.8334 108.987 75.7962C109.037 75.7712 109.081 75.7462 109.121 75.7229C109.231 75.6597 109.318 75.6097 109.454 75.6097L109.453 77.476ZM111.971 75.3312C111.971 75.5178 111.971 75.7044 112.158 75.7974C112.158 75.7974 112.344 75.7974 112.344 75.8909C112.344 76.0775 112.344 76.2641 112.531 76.4507C112.531 76.5566 112.441 76.5423 112.346 76.5272C112.273 76.5157 112.198 76.5038 112.158 76.5442C111.971 76.7308 111.878 76.9174 111.878 77.197C111.878 77.3836 111.971 77.4771 111.971 77.4771H110.106V75.3318L111.971 75.3312ZM110.479 73.4654C110.479 73.5123 110.432 73.5357 110.386 73.559C110.339 73.5823 110.293 73.6056 110.293 73.652C110.293 73.7842 110.269 73.9164 110.247 74.0403C110.207 74.2661 110.172 74.4644 110.293 74.5849C110.293 74.6785 110.106 74.6785 110.106 74.5849V72.9062H110.386C110.759 72.9993 110.573 73.0928 110.573 73.0928L110.479 73.1864V73.4654ZM110.759 74.6779C110.792 74.6282 110.822 74.5814 110.85 74.5375C110.981 74.3345 111.072 74.1947 111.225 74.1182C111.374 74.1182 111.509 74.0286 111.634 73.945C111.822 73.8196 111.99 73.7077 112.158 73.9316C112.158 74.0252 112.158 74.1182 112.251 74.2117C112.345 74.3983 112.532 74.3983 112.625 74.3983C112.718 74.3983 112.905 74.4919 112.905 74.6785L110.759 74.6779ZM113.37 75.3312C113.277 75.4248 113.09 75.5178 113.09 75.5178L112.904 75.3312H113.37ZM113.65 73.9316C113.593 74.0452 113.571 74.0896 113.541 74.1282C113.522 74.1529 113.5 74.1752 113.463 74.2117C113.272 74.1478 113.125 73.9536 112.991 73.7774L112.991 73.7774C112.929 73.6958 112.87 73.6181 112.811 73.559H112.904C112.961 73.5871 113.034 73.6067 113.114 73.6281C113.299 73.6776 113.52 73.7365 113.65 73.9316ZM115.795 76.5437L116.075 76.7303C115.865 76.8701 115.656 76.8526 115.446 76.835C115.376 76.8291 115.306 76.8233 115.236 76.8233C115.236 76.7848 115.252 76.7462 115.271 76.701C115.298 76.6369 115.33 76.5595 115.33 76.4501C115.516 76.5437 115.702 76.6367 115.795 76.5437ZM113.837 77.1964C113.837 77.2322 113.823 77.2543 113.811 77.2731C113.793 77.3036 113.779 77.3256 113.837 77.383C113.922 77.512 114.048 77.4827 114.149 77.459C114.268 77.4313 114.353 77.4113 114.303 77.6631C114.303 77.7235 114.187 77.706 114.054 77.6859C113.981 77.6749 113.903 77.6631 113.837 77.6631C113.761 77.4364 113.441 77.4545 113.173 77.4696H113.173C113.11 77.4732 113.05 77.4766 112.997 77.4766C112.962 77.4766 112.94 77.4902 112.921 77.5018C112.891 77.5207 112.868 77.5344 112.811 77.4766C112.749 77.2897 112.894 77.1445 113.025 77.0132C113.091 76.9476 113.153 76.8854 113.184 76.8233C113.458 76.6177 113.581 76.8154 113.701 77.0086L113.701 77.0087C113.744 77.0782 113.787 77.1471 113.837 77.1964ZM106.748 84.2858C106.978 84.3624 107.019 84.5019 107.078 84.7051C107.091 84.7488 107.105 84.7954 107.121 84.845L107.308 86.3376L107.121 86.4306H106.095C105.87 86.2053 105.705 85.8596 105.552 85.5388C105.515 85.4608 105.478 85.3842 105.442 85.3112C105.407 85.174 105.361 85.0494 105.315 84.9282C105.237 84.7196 105.162 84.5211 105.162 84.2858H106.748ZM107.401 87.0839C107.681 87.363 107.681 87.7361 107.681 88.1093L107.775 88.2034C107.586 88.2034 107.44 88.0761 107.279 87.9358L107.279 87.9357C107.201 87.8679 107.12 87.7971 107.028 87.7361C106.842 87.5501 106.655 87.363 106.562 87.0839H107.401ZM116.449 84.2858C116.356 84.2858 116.169 84.3788 116.075 84.4718C116.027 84.5694 116.055 84.6673 116.079 84.7518C116.101 84.8283 116.12 84.8938 116.075 84.938C115.916 85.0972 115.789 85.3 115.666 85.4981C115.427 85.8801 115.2 86.2446 114.769 86.2446C114.676 86.3376 114.536 86.3376 114.408 86.3376C114.28 86.3376 114.163 86.3376 114.117 86.4306H115.423C116.075 85.7773 116.635 85.1251 117.008 84.2858H116.449ZM108.987 86.4306C109.08 86.2446 109.267 85.9645 109.453 85.7773V86.4306H108.987ZM109.453 87.0839V88.8556L108.893 88.7626C108.846 88.7626 108.846 88.7393 108.846 88.7044C108.846 88.6696 108.846 88.6231 108.799 88.5765C108.758 88.4946 108.7 88.4664 108.639 88.4371C108.56 88.3995 108.479 88.3602 108.426 88.2034V87.0839H109.453ZM113.37 86.4306H110.106V84.2858H113.65C113.837 84.6579 113.93 85.0321 113.93 85.4983L113.463 86.4306H113.37ZM110.106 88.8556C110.293 88.8556 110.573 88.8556 110.759 88.7626C111.692 88.5765 112.439 87.8302 112.998 87.0839H110.106V88.8556Z" fill="#E1E7ED"/>
</svg>
